ISO-10303-21;
HEADER;
/* Generated by software containing ST-Developer
 * from STEP Tools, Inc. (www.steptools.com) 
 */

FILE_DESCRIPTION(
/* description */ (''),
/* implementation_level */ '2;1');

FILE_NAME(
/* name */ 'robot-v1-cover.step',
/* time_stamp */ '2026-09-07T14:44:13+09:00',
/* author */ (''),
/* organization */ (''),
/* preprocessor_version */ 'ST-DEVELOPER v20.2',
/* originating_system */ 'Autodesk Translation Framework v15.15.0.0',
/* authorisation */ '');

FILE_SCHEMA (('AUTOMOTIVE_DESIGN { 1 0 10303 214 3 1 1 }'));
ENDSEC;

DATA;
#10=MECHANICAL_DESIGN_GEOMETRIC_PRESENTATION_REPRESENTATION('',(#13),#1964);
#11=SHAPE_REPRESENTATION_RELATIONSHIP('SRR','None',#1971,#12);
#12=ADVANCED_BREP_SHAPE_REPRESENTATION('',(#14),#1963);
#13=STYLED_ITEM('',(#1981),#14);
#14=MANIFOLD_SOLID_BREP('B - White PLA front cover',#1161);
#15=FACE_BOUND('',#145,.T.);
#16=FACE_BOUND('',#146,.T.);
#17=FACE_BOUND('',#147,.T.);
#18=FACE_BOUND('',#148,.T.);
#19=FACE_BOUND('',#149,.T.);
#20=FACE_BOUND('',#150,.T.);
#21=FACE_BOUND('',#151,.T.);
#22=FACE_BOUND('',#152,.T.);
#23=FACE_BOUND('',#153,.T.);
#24=FACE_BOUND('',#154,.T.);
#25=FACE_BOUND('',#155,.T.);
#26=FACE_BOUND('',#187,.T.);
#27=FACE_BOUND('',#188,.T.);
#28=FACE_BOUND('',#189,.T.);
#29=FACE_BOUND('',#190,.T.);
#30=FACE_BOUND('',#191,.T.);
#31=FACE_BOUND('',#192,.T.);
#32=FACE_BOUND('',#193,.T.);
#33=FACE_BOUND('',#194,.T.);
#34=FACE_BOUND('',#195,.T.);
#35=FACE_BOUND('',#196,.T.);
#36=CONICAL_SURFACE('',#1211,12.5,0.785398163397449);
#37=PLANE('',#1187);
#38=PLANE('',#1188);
#39=PLANE('',#1189);
#40=PLANE('',#1190);
#41=PLANE('',#1191);
#42=PLANE('',#1195);
#43=PLANE('',#1199);
#44=PLANE('',#1203);
#45=PLANE('',#1207);
#46=PLANE('',#1216);
#47=PLANE('',#1235);
#48=PLANE('',#1238);
#49=PLANE('',#1241);
#50=PLANE('',#1244);
#51=PLANE('',#1247);
#52=PLANE('',#1250);
#53=PLANE('',#1253);
#54=PLANE('',#1256);
#55=PLANE('',#1259);
#56=PLANE('',#1262);
#57=PLANE('',#1265);
#58=PLANE('',#1268);
#59=PLANE('',#1271);
#60=PLANE('',#1272);
#61=PLANE('',#1275);
#62=PLANE('',#1280);
#63=PLANE('',#1285);
#64=PLANE('',#1287);
#65=PLANE('',#1289);
#66=FACE_OUTER_BOUND('',#124,.T.);
#67=FACE_OUTER_BOUND('',#125,.T.);
#68=FACE_OUTER_BOUND('',#126,.T.);
#69=FACE_OUTER_BOUND('',#127,.T.);
#70=FACE_OUTER_BOUND('',#128,.T.);
#71=FACE_OUTER_BOUND('',#129,.T.);
#72=FACE_OUTER_BOUND('',#130,.T.);
#73=FACE_OUTER_BOUND('',#131,.T.);
#74=FACE_OUTER_BOUND('',#132,.T.);
#75=FACE_OUTER_BOUND('',#133,.T.);
#76=FACE_OUTER_BOUND('',#134,.T.);
#77=FACE_OUTER_BOUND('',#135,.T.);
#78=FACE_OUTER_BOUND('',#136,.T.);
#79=FACE_OUTER_BOUND('',#137,.T.);
#80=FACE_OUTER_BOUND('',#138,.T.);
#81=FACE_OUTER_BOUND('',#139,.T.);
#82=FACE_OUTER_BOUND('',#140,.T.);
#83=FACE_OUTER_BOUND('',#141,.T.);
#84=FACE_OUTER_BOUND('',#142,.T.);
#85=FACE_OUTER_BOUND('',#143,.T.);
#86=FACE_OUTER_BOUND('',#144,.T.);
#87=FACE_OUTER_BOUND('',#156,.T.);
#88=FACE_OUTER_BOUND('',#157,.T.);
#89=FACE_OUTER_BOUND('',#158,.T.);
#90=FACE_OUTER_BOUND('',#159,.T.);
#91=FACE_OUTER_BOUND('',#160,.T.);
#92=FACE_OUTER_BOUND('',#161,.T.);
#93=FACE_OUTER_BOUND('',#162,.T.);
#94=FACE_OUTER_BOUND('',#163,.T.);
#95=FACE_OUTER_BOUND('',#164,.T.);
#96=FACE_OUTER_BOUND('',#165,.T.);
#97=FACE_OUTER_BOUND('',#166,.T.);
#98=FACE_OUTER_BOUND('',#167,.T.);
#99=FACE_OUTER_BOUND('',#168,.T.);
#100=FACE_OUTER_BOUND('',#169,.T.);
#101=FACE_OUTER_BOUND('',#170,.T.);
#102=FACE_OUTER_BOUND('',#171,.T.);
#103=FACE_OUTER_BOUND('',#172,.T.);
#104=FACE_OUTER_BOUND('',#173,.T.);
#105=FACE_OUTER_BOUND('',#174,.T.);
#106=FACE_OUTER_BOUND('',#175,.T.);
#107=FACE_OUTER_BOUND('',#176,.T.);
#108=FACE_OUTER_BOUND('',#177,.T.);
#109=FACE_OUTER_BOUND('',#178,.T.);
#110=FACE_OUTER_BOUND('',#179,.T.);
#111=FACE_OUTER_BOUND('',#180,.T.);
#112=FACE_OUTER_BOUND('',#181,.T.);
#113=FACE_OUTER_BOUND('',#182,.T.);
#114=FACE_OUTER_BOUND('',#183,.T.);
#115=FACE_OUTER_BOUND('',#184,.T.);
#116=FACE_OUTER_BOUND('',#185,.T.);
#117=FACE_OUTER_BOUND('',#186,.T.);
#118=FACE_OUTER_BOUND('',#197,.T.);
#119=FACE_OUTER_BOUND('',#198,.T.);
#120=FACE_OUTER_BOUND('',#199,.T.);
#121=FACE_OUTER_BOUND('',#200,.T.);
#122=FACE_OUTER_BOUND('',#201,.T.);
#123=FACE_OUTER_BOUND('',#202,.T.);
#124=EDGE_LOOP('',(#747,#748,#749,#750));
#125=EDGE_LOOP('',(#751,#752,#753,#754));
#126=EDGE_LOOP('',(#755,#756,#757,#758));
#127=EDGE_LOOP('',(#759,#760,#761,#762));
#128=EDGE_LOOP('',(#763,#764,#765,#766));
#129=EDGE_LOOP('',(#767,#768,#769,#770));
#130=EDGE_LOOP('',(#771,#772,#773,#774));
#131=EDGE_LOOP('',(#775,#776,#777,#778));
#132=EDGE_LOOP('',(#779,#780,#781,#782));
#133=EDGE_LOOP('',(#783,#784,#785,#786));
#134=EDGE_LOOP('',(#787,#788,#789,#790));
#135=EDGE_LOOP('',(#791,#792,#793,#794));
#136=EDGE_LOOP('',(#795,#796,#797,#798));
#137=EDGE_LOOP('',(#799,#800,#801,#802));
#138=EDGE_LOOP('',(#803,#804,#805,#806));
#139=EDGE_LOOP('',(#807,#808,#809,#810));
#140=EDGE_LOOP('',(#811,#812,#813,#814));
#141=EDGE_LOOP('',(#815,#816,#817,#818));
#142=EDGE_LOOP('',(#819,#820,#821,#822));
#143=EDGE_LOOP('',(#823,#824,#825,#826));
#144=EDGE_LOOP('',(#827,#828,#829,#830,#831,#832,#833,#834,#835,#836,#837,
#838));
#145=EDGE_LOOP('',(#839));
#146=EDGE_LOOP('',(#840));
#147=EDGE_LOOP('',(#841,#842,#843,#844));
#148=EDGE_LOOP('',(#845));
#149=EDGE_LOOP('',(#846,#847,#848,#849,#850,#851,#852,#853));
#150=EDGE_LOOP('',(#854,#855,#856,#857,#858,#859,#860,#861));
#151=EDGE_LOOP('',(#862,#863,#864,#865,#866,#867,#868,#869));
#152=EDGE_LOOP('',(#870,#871,#872,#873,#874,#875,#876,#877));
#153=EDGE_LOOP('',(#878));
#154=EDGE_LOOP('',(#879));
#155=EDGE_LOOP('',(#880));
#156=EDGE_LOOP('',(#881,#882,#883,#884));
#157=EDGE_LOOP('',(#885,#886,#887,#888));
#158=EDGE_LOOP('',(#889,#890,#891,#892));
#159=EDGE_LOOP('',(#893,#894,#895,#896));
#160=EDGE_LOOP('',(#897,#898,#899,#900));
#161=EDGE_LOOP('',(#901,#902,#903,#904));
#162=EDGE_LOOP('',(#905,#906,#907,#908));
#163=EDGE_LOOP('',(#909,#910,#911,#912));
#164=EDGE_LOOP('',(#913,#914,#915,#916));
#165=EDGE_LOOP('',(#917,#918,#919,#920));
#166=EDGE_LOOP('',(#921,#922,#923,#924));
#167=EDGE_LOOP('',(#925,#926,#927,#928));
#168=EDGE_LOOP('',(#929,#930,#931,#932));
#169=EDGE_LOOP('',(#933,#934,#935,#936));
#170=EDGE_LOOP('',(#937,#938,#939,#940));
#171=EDGE_LOOP('',(#941,#942,#943,#944));
#172=EDGE_LOOP('',(#945,#946,#947,#948));
#173=EDGE_LOOP('',(#949,#950,#951,#952));
#174=EDGE_LOOP('',(#953,#954,#955,#956));
#175=EDGE_LOOP('',(#957,#958,#959,#960));
#176=EDGE_LOOP('',(#961,#962,#963,#964));
#177=EDGE_LOOP('',(#965,#966,#967,#968));
#178=EDGE_LOOP('',(#969,#970,#971,#972));
#179=EDGE_LOOP('',(#973,#974,#975,#976));
#180=EDGE_LOOP('',(#977,#978,#979,#980));
#181=EDGE_LOOP('',(#981,#982,#983,#984));
#182=EDGE_LOOP('',(#985,#986,#987,#988));
#183=EDGE_LOOP('',(#989,#990,#991,#992));
#184=EDGE_LOOP('',(#993,#994,#995,#996));
#185=EDGE_LOOP('',(#997,#998,#999,#1000));
#186=EDGE_LOOP('',(#1001,#1002,#1003,#1004,#1005,#1006,#1007,#1008,#1009,
#1010,#1011,#1012));
#187=EDGE_LOOP('',(#1013));
#188=EDGE_LOOP('',(#1014,#1015,#1016,#1017,#1018,#1019,#1020,#1021));
#189=EDGE_LOOP('',(#1022,#1023,#1024,#1025,#1026,#1027,#1028,#1029));
#190=EDGE_LOOP('',(#1030,#1031,#1032,#1033,#1034,#1035,#1036,#1037));
#191=EDGE_LOOP('',(#1038));
#192=EDGE_LOOP('',(#1039,#1040,#1041,#1042,#1043,#1044,#1045,#1046));
#193=EDGE_LOOP('',(#1047));
#194=EDGE_LOOP('',(#1048));
#195=EDGE_LOOP('',(#1049));
#196=EDGE_LOOP('',(#1050));
#197=EDGE_LOOP('',(#1051,#1052,#1053,#1054));
#198=EDGE_LOOP('',(#1055,#1056,#1057,#1058));
#199=EDGE_LOOP('',(#1059,#1060,#1061,#1062));
#200=EDGE_LOOP('',(#1063,#1064,#1065,#1066));
#201=EDGE_LOOP('',(#1067,#1068,#1069,#1070));
#202=EDGE_LOOP('',(#1071,#1072,#1073,#1074));
#203=LINE('',#1634,#310);
#204=LINE('',#1640,#311);
#205=LINE('',#1646,#312);
#206=LINE('',#1652,#313);
#207=LINE('',#1657,#314);
#208=LINE('',#1659,#315);
#209=LINE('',#1661,#316);
#210=LINE('',#1662,#317);
#211=LINE('',#1665,#318);
#212=LINE('',#1667,#319);
#213=LINE('',#1668,#320);
#214=LINE('',#1671,#321);
#215=LINE('',#1673,#322);
#216=LINE('',#1674,#323);
#217=LINE('',#1676,#324);
#218=LINE('',#1677,#325);
#219=LINE('',#1683,#326);
#220=LINE('',#1688,#327);
#221=LINE('',#1690,#328);
#222=LINE('',#1692,#329);
#223=LINE('',#1693,#330);
#224=LINE('',#1698,#331);
#225=LINE('',#1702,#332);
#226=LINE('',#1704,#333);
#227=LINE('',#1705,#334);
#228=LINE('',#1710,#335);
#229=LINE('',#1714,#336);
#230=LINE('',#1716,#337);
#231=LINE('',#1717,#338);
#232=LINE('',#1722,#339);
#233=LINE('',#1726,#340);
#234=LINE('',#1728,#341);
#235=LINE('',#1729,#342);
#236=LINE('',#1737,#343);
#237=LINE('',#1741,#344);
#238=LINE('',#1748,#345);
#239=LINE('',#1752,#346);
#240=LINE('',#1756,#347);
#241=LINE('',#1760,#348);
#242=LINE('',#1764,#349);
#243=LINE('',#1767,#350);
#244=LINE('',#1770,#351);
#245=LINE('',#1774,#352);
#246=LINE('',#1778,#353);
#247=LINE('',#1782,#354);
#248=LINE('',#1786,#355);
#249=LINE('',#1790,#356);
#250=LINE('',#1794,#357);
#251=LINE('',#1798,#358);
#252=LINE('',#1802,#359);
#253=LINE('',#1806,#360);
#254=LINE('',#1810,#361);
#255=LINE('',#1814,#362);
#256=LINE('',#1818,#363);
#257=LINE('',#1820,#364);
#258=LINE('',#1821,#365);
#259=LINE('',#1824,#366);
#260=LINE('',#1828,#367);
#261=LINE('',#1829,#368);
#262=LINE('',#1832,#369);
#263=LINE('',#1836,#370);
#264=LINE('',#1837,#371);
#265=LINE('',#1840,#372);
#266=LINE('',#1844,#373);
#267=LINE('',#1845,#374);
#268=LINE('',#1850,#375);
#269=LINE('',#1852,#376);
#270=LINE('',#1853,#377);
#271=LINE('',#1856,#378);
#272=LINE('',#1860,#379);
#273=LINE('',#1861,#380);
#274=LINE('',#1864,#381);
#275=LINE('',#1868,#382);
#276=LINE('',#1869,#383);
#277=LINE('',#1872,#384);
#278=LINE('',#1876,#385);
#279=LINE('',#1877,#386);
#280=LINE('',#1882,#387);
#281=LINE('',#1884,#388);
#282=LINE('',#1885,#389);
#283=LINE('',#1888,#390);
#284=LINE('',#1892,#391);
#285=LINE('',#1893,#392);
#286=LINE('',#1896,#393);
#287=LINE('',#1900,#394);
#288=LINE('',#1901,#395);
#289=LINE('',#1904,#396);
#290=LINE('',#1908,#397);
#291=LINE('',#1909,#398);
#292=LINE('',#1914,#399);
#293=LINE('',#1916,#400);
#294=LINE('',#1917,#401);
#295=LINE('',#1921,#402);
#296=LINE('',#1922,#403);
#297=LINE('',#1923,#404);
#298=LINE('',#1928,#405);
#299=LINE('',#1930,#406);
#300=LINE('',#1931,#407);
#301=LINE('',#1937,#408);
#302=LINE('',#1942,#409);
#303=LINE('',#1946,#410);
#304=LINE('',#1949,#411);
#305=LINE('',#1951,#412);
#306=LINE('',#1953,#413);
#307=LINE('',#1955,#414);
#308=LINE('',#1957,#415);
#309=LINE('',#1959,#416);
#310=VECTOR('',#1296,1.7);
#311=VECTOR('',#1303,1.7);
#312=VECTOR('',#1310,1.7);
#313=VECTOR('',#1317,1.7);
#314=VECTOR('',#1322,10.);
#315=VECTOR('',#1323,10.);
#316=VECTOR('',#1324,10.);
#317=VECTOR('',#1325,10.);
#318=VECTOR('',#1328,10.);
#319=VECTOR('',#1329,10.);
#320=VECTOR('',#1330,10.);
#321=VECTOR('',#1333,10.);
#322=VECTOR('',#1334,10.);
#323=VECTOR('',#1335,10.);
#324=VECTOR('',#1338,10.);
#325=VECTOR('',#1339,10.);
#326=VECTOR('',#1346,7.);
#327=VECTOR('',#1351,10.);
#328=VECTOR('',#1352,10.);
#329=VECTOR('',#1353,10.);
#330=VECTOR('',#1354,10.);
#331=VECTOR('',#1359,10.);
#332=VECTOR('',#1364,10.);
#333=VECTOR('',#1365,10.);
#334=VECTOR('',#1366,10.);
#335=VECTOR('',#1371,10.);
#336=VECTOR('',#1376,10.);
#337=VECTOR('',#1377,10.);
#338=VECTOR('',#1378,10.);
#339=VECTOR('',#1383,10.);
#340=VECTOR('',#1388,10.);
#341=VECTOR('',#1389,10.);
#342=VECTOR('',#1390,10.);
#343=VECTOR('',#1401,12.5);
#344=VECTOR('',#1406,12.);
#345=VECTOR('',#1413,10.);
#346=VECTOR('',#1416,10.);
#347=VECTOR('',#1419,10.);
#348=VECTOR('',#1422,10.);
#349=VECTOR('',#1425,10.);
#350=VECTOR('',#1428,10.);
#351=VECTOR('',#1429,10.);
#352=VECTOR('',#1432,10.);
#353=VECTOR('',#1435,10.);
#354=VECTOR('',#1438,10.);
#355=VECTOR('',#1441,10.);
#356=VECTOR('',#1444,10.);
#357=VECTOR('',#1447,10.);
#358=VECTOR('',#1450,10.);
#359=VECTOR('',#1453,10.);
#360=VECTOR('',#1456,10.);
#361=VECTOR('',#1459,10.);
#362=VECTOR('',#1462,10.);
#363=VECTOR('',#1467,10.);
#364=VECTOR('',#1468,10.);
#365=VECTOR('',#1469,10.);
#366=VECTOR('',#1472,10.);
#367=VECTOR('',#1477,10.);
#368=VECTOR('',#1478,10.);
#369=VECTOR('',#1481,10.);
#370=VECTOR('',#1486,10.);
#371=VECTOR('',#1487,10.);
#372=VECTOR('',#1490,10.);
#373=VECTOR('',#1495,10.);
#374=VECTOR('',#1496,10.);
#375=VECTOR('',#1503,10.);
#376=VECTOR('',#1504,10.);
#377=VECTOR('',#1505,10.);
#378=VECTOR('',#1508,10.);
#379=VECTOR('',#1513,10.);
#380=VECTOR('',#1514,10.);
#381=VECTOR('',#1517,10.);
#382=VECTOR('',#1522,10.);
#383=VECTOR('',#1523,10.);
#384=VECTOR('',#1526,10.);
#385=VECTOR('',#1531,10.);
#386=VECTOR('',#1532,10.);
#387=VECTOR('',#1539,10.);
#388=VECTOR('',#1540,10.);
#389=VECTOR('',#1541,10.);
#390=VECTOR('',#1544,10.);
#391=VECTOR('',#1549,10.);
#392=VECTOR('',#1550,10.);
#393=VECTOR('',#1553,10.);
#394=VECTOR('',#1558,10.);
#395=VECTOR('',#1559,10.);
#396=VECTOR('',#1562,10.);
#397=VECTOR('',#1567,10.);
#398=VECTOR('',#1568,10.);
#399=VECTOR('',#1575,10.);
#400=VECTOR('',#1576,10.);
#401=VECTOR('',#1577,10.);
#402=VECTOR('',#1580,10.);
#403=VECTOR('',#1581,10.);
#404=VECTOR('',#1582,10.);
#405=VECTOR('',#1589,10.);
#406=VECTOR('',#1590,10.);
#407=VECTOR('',#1591,10.);
#408=VECTOR('',#1600,10.);
#409=VECTOR('',#1605,10.);
#410=VECTOR('',#1608,10.);
#411=VECTOR('',#1611,10.);
#412=VECTOR('',#1614,10.);
#413=VECTOR('',#1617,10.);
#414=VECTOR('',#1620,10.);
#415=VECTOR('',#1623,10.);
#416=VECTOR('',#1626,10.);
#417=CIRCLE('',#1176,1.7);
#418=CIRCLE('',#1177,1.7);
#419=CIRCLE('',#1179,1.7);
#420=CIRCLE('',#1180,1.7);
#421=CIRCLE('',#1182,1.7);
#422=CIRCLE('',#1183,1.7);
#423=CIRCLE('',#1185,1.7);
#424=CIRCLE('',#1186,1.7);
#425=CIRCLE('',#1193,7.);
#426=CIRCLE('',#1194,7.);
#427=CIRCLE('',#1197,2.);
#428=CIRCLE('',#1198,2.);
#429=CIRCLE('',#1201,2.);
#430=CIRCLE('',#1202,2.);
#431=CIRCLE('',#1205,2.);
#432=CIRCLE('',#1206,2.);
#433=CIRCLE('',#1209,2.);
#434=CIRCLE('',#1210,2.);
#435=CIRCLE('',#1212,13.);
#436=CIRCLE('',#1213,12.);
#437=CIRCLE('',#1215,12.);
#438=CIRCLE('',#1217,6.);
#439=CIRCLE('',#1218,6.00000000000001);
#440=CIRCLE('',#1219,6.);
#441=CIRCLE('',#1220,6.00000000000001);
#442=CIRCLE('',#1221,6.);
#443=CIRCLE('',#1222,6.00000000000001);
#444=CIRCLE('',#1223,8.);
#445=CIRCLE('',#1224,8.);
#446=CIRCLE('',#1225,8.);
#447=CIRCLE('',#1226,8.);
#448=CIRCLE('',#1227,7.99999999999999);
#449=CIRCLE('',#1228,8.);
#450=CIRCLE('',#1229,7.99999999999999);
#451=CIRCLE('',#1230,8.00000000000001);
#452=CIRCLE('',#1231,3.);
#453=CIRCLE('',#1232,3.);
#454=CIRCLE('',#1233,3.);
#455=CIRCLE('',#1234,3.);
#456=CIRCLE('',#1237,3.);
#457=CIRCLE('',#1240,3.);
#458=CIRCLE('',#1243,3.);
#459=CIRCLE('',#1246,3.);
#460=CIRCLE('',#1249,8.00000000000001);
#461=CIRCLE('',#1252,7.99999999999999);
#462=CIRCLE('',#1255,8.);
#463=CIRCLE('',#1258,7.99999999999999);
#464=CIRCLE('',#1261,8.);
#465=CIRCLE('',#1264,8.);
#466=CIRCLE('',#1267,8.);
#467=CIRCLE('',#1270,8.);
#468=CIRCLE('',#1274,6.);
#469=CIRCLE('',#1277,6.00000000000001);
#470=CIRCLE('',#1279,6.);
#471=CIRCLE('',#1281,6.00000000000001);
#472=CIRCLE('',#1282,6.);
#473=CIRCLE('',#1283,6.00000000000001);
#474=VERTEX_POINT('',#1631);
#475=VERTEX_POINT('',#1633);
#476=VERTEX_POINT('',#1637);
#477=VERTEX_POINT('',#1639);
#478=VERTEX_POINT('',#1643);
#479=VERTEX_POINT('',#1645);
#480=VERTEX_POINT('',#1649);
#481=VERTEX_POINT('',#1651);
#482=VERTEX_POINT('',#1655);
#483=VERTEX_POINT('',#1656);
#484=VERTEX_POINT('',#1658);
#485=VERTEX_POINT('',#1660);
#486=VERTEX_POINT('',#1664);
#487=VERTEX_POINT('',#1666);
#488=VERTEX_POINT('',#1670);
#489=VERTEX_POINT('',#1672);
#490=VERTEX_POINT('',#1680);
#491=VERTEX_POINT('',#1682);
#492=VERTEX_POINT('',#1686);
#493=VERTEX_POINT('',#1687);
#494=VERTEX_POINT('',#1689);
#495=VERTEX_POINT('',#1691);
#496=VERTEX_POINT('',#1695);
#497=VERTEX_POINT('',#1697);
#498=VERTEX_POINT('',#1701);
#499=VERTEX_POINT('',#1703);
#500=VERTEX_POINT('',#1707);
#501=VERTEX_POINT('',#1709);
#502=VERTEX_POINT('',#1713);
#503=VERTEX_POINT('',#1715);
#504=VERTEX_POINT('',#1719);
#505=VERTEX_POINT('',#1721);
#506=VERTEX_POINT('',#1725);
#507=VERTEX_POINT('',#1727);
#508=VERTEX_POINT('',#1734);
#509=VERTEX_POINT('',#1736);
#510=VERTEX_POINT('',#1740);
#511=VERTEX_POINT('',#1744);
#512=VERTEX_POINT('',#1745);
#513=VERTEX_POINT('',#1747);
#514=VERTEX_POINT('',#1749);
#515=VERTEX_POINT('',#1751);
#516=VERTEX_POINT('',#1753);
#517=VERTEX_POINT('',#1755);
#518=VERTEX_POINT('',#1757);
#519=VERTEX_POINT('',#1759);
#520=VERTEX_POINT('',#1761);
#521=VERTEX_POINT('',#1763);
#522=VERTEX_POINT('',#1765);
#523=VERTEX_POINT('',#1768);
#524=VERTEX_POINT('',#1769);
#525=VERTEX_POINT('',#1771);
#526=VERTEX_POINT('',#1773);
#527=VERTEX_POINT('',#1775);
#528=VERTEX_POINT('',#1777);
#529=VERTEX_POINT('',#1779);
#530=VERTEX_POINT('',#1781);
#531=VERTEX_POINT('',#1784);
#532=VERTEX_POINT('',#1785);
#533=VERTEX_POINT('',#1787);
#534=VERTEX_POINT('',#1789);
#535=VERTEX_POINT('',#1791);
#536=VERTEX_POINT('',#1793);
#537=VERTEX_POINT('',#1795);
#538=VERTEX_POINT('',#1797);
#539=VERTEX_POINT('',#1800);
#540=VERTEX_POINT('',#1801);
#541=VERTEX_POINT('',#1803);
#542=VERTEX_POINT('',#1805);
#543=VERTEX_POINT('',#1807);
#544=VERTEX_POINT('',#1809);
#545=VERTEX_POINT('',#1811);
#546=VERTEX_POINT('',#1813);
#547=VERTEX_POINT('',#1817);
#548=VERTEX_POINT('',#1819);
#549=VERTEX_POINT('',#1823);
#550=VERTEX_POINT('',#1827);
#551=VERTEX_POINT('',#1831);
#552=VERTEX_POINT('',#1835);
#553=VERTEX_POINT('',#1839);
#554=VERTEX_POINT('',#1843);
#555=VERTEX_POINT('',#1849);
#556=VERTEX_POINT('',#1851);
#557=VERTEX_POINT('',#1855);
#558=VERTEX_POINT('',#1859);
#559=VERTEX_POINT('',#1863);
#560=VERTEX_POINT('',#1867);
#561=VERTEX_POINT('',#1871);
#562=VERTEX_POINT('',#1875);
#563=VERTEX_POINT('',#1881);
#564=VERTEX_POINT('',#1883);
#565=VERTEX_POINT('',#1887);
#566=VERTEX_POINT('',#1891);
#567=VERTEX_POINT('',#1895);
#568=VERTEX_POINT('',#1899);
#569=VERTEX_POINT('',#1903);
#570=VERTEX_POINT('',#1907);
#571=VERTEX_POINT('',#1913);
#572=VERTEX_POINT('',#1915);
#573=VERTEX_POINT('',#1919);
#574=VERTEX_POINT('',#1920);
#575=VERTEX_POINT('',#1927);
#576=VERTEX_POINT('',#1929);
#577=VERTEX_POINT('',#1935);
#578=VERTEX_POINT('',#1939);
#579=VERTEX_POINT('',#1941);
#580=VERTEX_POINT('',#1943);
#581=VERTEX_POINT('',#1945);
#582=VERTEX_POINT('',#1947);
#583=EDGE_CURVE('',#474,#474,#417,.T.);
#584=EDGE_CURVE('',#474,#475,#203,.T.);
#585=EDGE_CURVE('',#475,#475,#418,.T.);
#586=EDGE_CURVE('',#476,#476,#419,.T.);
#587=EDGE_CURVE('',#476,#477,#204,.T.);
#588=EDGE_CURVE('',#477,#477,#420,.T.);
#589=EDGE_CURVE('',#478,#478,#421,.T.);
#590=EDGE_CURVE('',#478,#479,#205,.T.);
#591=EDGE_CURVE('',#479,#479,#422,.T.);
#592=EDGE_CURVE('',#480,#480,#423,.T.);
#593=EDGE_CURVE('',#480,#481,#206,.T.);
#594=EDGE_CURVE('',#481,#481,#424,.T.);
#595=EDGE_CURVE('',#482,#483,#207,.T.);
#596=EDGE_CURVE('',#482,#484,#208,.T.);
#597=EDGE_CURVE('',#484,#485,#209,.T.);
#598=EDGE_CURVE('',#483,#485,#210,.T.);
#599=EDGE_CURVE('',#486,#482,#211,.T.);
#600=EDGE_CURVE('',#486,#487,#212,.T.);
#601=EDGE_CURVE('',#487,#484,#213,.T.);
#602=EDGE_CURVE('',#488,#486,#214,.T.);
#603=EDGE_CURVE('',#488,#489,#215,.T.);
#604=EDGE_CURVE('',#489,#487,#216,.T.);
#605=EDGE_CURVE('',#483,#488,#217,.T.);
#606=EDGE_CURVE('',#485,#489,#218,.T.);
#607=EDGE_CURVE('',#490,#490,#425,.T.);
#608=EDGE_CURVE('',#490,#491,#219,.T.);
#609=EDGE_CURVE('',#491,#491,#426,.T.);
#610=EDGE_CURVE('',#492,#493,#220,.T.);
#611=EDGE_CURVE('',#492,#494,#221,.T.);
#612=EDGE_CURVE('',#495,#494,#222,.T.);
#613=EDGE_CURVE('',#493,#495,#223,.T.);
#614=EDGE_CURVE('',#496,#492,#427,.T.);
#615=EDGE_CURVE('',#496,#497,#224,.T.);
#616=EDGE_CURVE('',#494,#497,#428,.T.);
#617=EDGE_CURVE('',#498,#496,#225,.T.);
#618=EDGE_CURVE('',#498,#499,#226,.T.);
#619=EDGE_CURVE('',#497,#499,#227,.T.);
#620=EDGE_CURVE('',#500,#498,#429,.T.);
#621=EDGE_CURVE('',#500,#501,#228,.T.);
#622=EDGE_CURVE('',#499,#501,#430,.T.);
#623=EDGE_CURVE('',#502,#500,#229,.T.);
#624=EDGE_CURVE('',#502,#503,#230,.T.);
#625=EDGE_CURVE('',#501,#503,#231,.T.);
#626=EDGE_CURVE('',#504,#502,#431,.T.);
#627=EDGE_CURVE('',#504,#505,#232,.T.);
#628=EDGE_CURVE('',#503,#505,#432,.T.);
#629=EDGE_CURVE('',#506,#504,#233,.T.);
#630=EDGE_CURVE('',#506,#507,#234,.T.);
#631=EDGE_CURVE('',#505,#507,#235,.T.);
#632=EDGE_CURVE('',#493,#506,#433,.T.);
#633=EDGE_CURVE('',#507,#495,#434,.T.);
#634=EDGE_CURVE('',#508,#508,#435,.T.);
#635=EDGE_CURVE('',#508,#509,#236,.T.);
#636=EDGE_CURVE('',#509,#509,#436,.T.);
#637=EDGE_CURVE('',#509,#510,#237,.T.);
#638=EDGE_CURVE('',#510,#510,#437,.T.);
#639=EDGE_CURVE('',#511,#512,#438,.T.);
#640=EDGE_CURVE('',#512,#513,#238,.T.);
#641=EDGE_CURVE('',#513,#514,#439,.T.);
#642=EDGE_CURVE('',#514,#515,#239,.T.);
#643=EDGE_CURVE('',#515,#516,#440,.T.);
#644=EDGE_CURVE('',#516,#517,#240,.T.);
#645=EDGE_CURVE('',#517,#518,#441,.T.);
#646=EDGE_CURVE('',#518,#519,#241,.T.);
#647=EDGE_CURVE('',#519,#520,#442,.T.);
#648=EDGE_CURVE('',#520,#521,#242,.T.);
#649=EDGE_CURVE('',#521,#522,#443,.T.);
#650=EDGE_CURVE('',#522,#511,#243,.T.);
#651=EDGE_CURVE('',#523,#524,#244,.T.);
#652=EDGE_CURVE('',#524,#525,#444,.T.);
#653=EDGE_CURVE('',#525,#526,#245,.T.);
#654=EDGE_CURVE('',#526,#527,#445,.T.);
#655=EDGE_CURVE('',#527,#528,#246,.T.);
#656=EDGE_CURVE('',#528,#529,#446,.T.);
#657=EDGE_CURVE('',#529,#530,#247,.T.);
#658=EDGE_CURVE('',#530,#523,#447,.T.);
#659=EDGE_CURVE('',#531,#532,#248,.T.);
#660=EDGE_CURVE('',#532,#533,#448,.T.);
#661=EDGE_CURVE('',#533,#534,#249,.T.);
#662=EDGE_CURVE('',#534,#535,#449,.T.);
#663=EDGE_CURVE('',#535,#536,#250,.T.);
#664=EDGE_CURVE('',#536,#537,#450,.T.);
#665=EDGE_CURVE('',#537,#538,#251,.T.);
#666=EDGE_CURVE('',#538,#531,#451,.T.);
#667=EDGE_CURVE('',#539,#540,#252,.T.);
#668=EDGE_CURVE('',#540,#541,#452,.T.);
#669=EDGE_CURVE('',#541,#542,#253,.T.);
#670=EDGE_CURVE('',#542,#543,#453,.T.);
#671=EDGE_CURVE('',#543,#544,#254,.T.);
#672=EDGE_CURVE('',#544,#545,#454,.T.);
#673=EDGE_CURVE('',#545,#546,#255,.T.);
#674=EDGE_CURVE('',#546,#539,#455,.T.);
#675=EDGE_CURVE('',#539,#547,#256,.T.);
#676=EDGE_CURVE('',#548,#547,#257,.T.);
#677=EDGE_CURVE('',#540,#548,#258,.T.);
#678=EDGE_CURVE('',#546,#549,#259,.T.);
#679=EDGE_CURVE('',#547,#549,#456,.T.);
#680=EDGE_CURVE('',#545,#550,#260,.T.);
#681=EDGE_CURVE('',#549,#550,#261,.T.);
#682=EDGE_CURVE('',#544,#551,#262,.T.);
#683=EDGE_CURVE('',#550,#551,#457,.T.);
#684=EDGE_CURVE('',#543,#552,#263,.T.);
#685=EDGE_CURVE('',#551,#552,#264,.T.);
#686=EDGE_CURVE('',#542,#553,#265,.T.);
#687=EDGE_CURVE('',#552,#553,#458,.T.);
#688=EDGE_CURVE('',#541,#554,#266,.T.);
#689=EDGE_CURVE('',#553,#554,#267,.T.);
#690=EDGE_CURVE('',#554,#548,#459,.T.);
#691=EDGE_CURVE('',#531,#555,#268,.T.);
#692=EDGE_CURVE('',#556,#555,#269,.T.);
#693=EDGE_CURVE('',#532,#556,#270,.T.);
#694=EDGE_CURVE('',#538,#557,#271,.T.);
#695=EDGE_CURVE('',#555,#557,#460,.T.);
#696=EDGE_CURVE('',#537,#558,#272,.T.);
#697=EDGE_CURVE('',#557,#558,#273,.T.);
#698=EDGE_CURVE('',#536,#559,#274,.T.);
#699=EDGE_CURVE('',#558,#559,#461,.T.);
#700=EDGE_CURVE('',#535,#560,#275,.T.);
#701=EDGE_CURVE('',#559,#560,#276,.T.);
#702=EDGE_CURVE('',#534,#561,#277,.T.);
#703=EDGE_CURVE('',#560,#561,#462,.T.);
#704=EDGE_CURVE('',#533,#562,#278,.T.);
#705=EDGE_CURVE('',#561,#562,#279,.T.);
#706=EDGE_CURVE('',#562,#556,#463,.T.);
#707=EDGE_CURVE('',#523,#563,#280,.T.);
#708=EDGE_CURVE('',#564,#563,#281,.T.);
#709=EDGE_CURVE('',#524,#564,#282,.T.);
#710=EDGE_CURVE('',#530,#565,#283,.T.);
#711=EDGE_CURVE('',#563,#565,#464,.T.);
#712=EDGE_CURVE('',#529,#566,#284,.T.);
#713=EDGE_CURVE('',#565,#566,#285,.T.);
#714=EDGE_CURVE('',#528,#567,#286,.T.);
#715=EDGE_CURVE('',#566,#567,#465,.T.);
#716=EDGE_CURVE('',#527,#568,#287,.T.);
#717=EDGE_CURVE('',#567,#568,#288,.T.);
#718=EDGE_CURVE('',#526,#569,#289,.T.);
#719=EDGE_CURVE('',#568,#569,#466,.T.);
#720=EDGE_CURVE('',#525,#570,#290,.T.);
#721=EDGE_CURVE('',#569,#570,#291,.T.);
#722=EDGE_CURVE('',#570,#564,#467,.T.);
#723=EDGE_CURVE('',#571,#518,#292,.T.);
#724=EDGE_CURVE('',#572,#571,#293,.T.);
#725=EDGE_CURVE('',#572,#519,#294,.T.);
#726=EDGE_CURVE('',#573,#574,#295,.T.);
#727=EDGE_CURVE('',#573,#521,#296,.T.);
#728=EDGE_CURVE('',#574,#520,#297,.T.);
#729=EDGE_CURVE('',#572,#574,#468,.T.);
#730=EDGE_CURVE('',#511,#575,#298,.T.);
#731=EDGE_CURVE('',#576,#522,#299,.T.);
#732=EDGE_CURVE('',#575,#576,#300,.T.);
#733=EDGE_CURVE('',#573,#576,#469,.T.);
#734=EDGE_CURVE('',#575,#577,#470,.T.);
#735=EDGE_CURVE('',#577,#512,#301,.T.);
#736=EDGE_CURVE('',#578,#571,#471,.T.);
#737=EDGE_CURVE('',#578,#579,#302,.T.);
#738=EDGE_CURVE('',#580,#579,#472,.T.);
#739=EDGE_CURVE('',#580,#581,#303,.T.);
#740=EDGE_CURVE('',#582,#581,#473,.T.);
#741=EDGE_CURVE('',#582,#577,#304,.T.);
#742=EDGE_CURVE('',#578,#517,#305,.T.);
#743=EDGE_CURVE('',#579,#516,#306,.T.);
#744=EDGE_CURVE('',#580,#515,#307,.T.);
#745=EDGE_CURVE('',#581,#514,#308,.T.);
#746=EDGE_CURVE('',#582,#513,#309,.T.);
#747=ORIENTED_EDGE('',*,*,#583,.F.);
#748=ORIENTED_EDGE('',*,*,#584,.T.);
#749=ORIENTED_EDGE('',*,*,#585,.F.);
#750=ORIENTED_EDGE('',*,*,#584,.F.);
#751=ORIENTED_EDGE('',*,*,#586,.F.);
#752=ORIENTED_EDGE('',*,*,#587,.T.);
#753=ORIENTED_EDGE('',*,*,#588,.F.);
#754=ORIENTED_EDGE('',*,*,#587,.F.);
#755=ORIENTED_EDGE('',*,*,#589,.F.);
#756=ORIENTED_EDGE('',*,*,#590,.T.);
#757=ORIENTED_EDGE('',*,*,#591,.F.);
#758=ORIENTED_EDGE('',*,*,#590,.F.);
#759=ORIENTED_EDGE('',*,*,#592,.F.);
#760=ORIENTED_EDGE('',*,*,#593,.T.);
#761=ORIENTED_EDGE('',*,*,#594,.F.);
#762=ORIENTED_EDGE('',*,*,#593,.F.);
#763=ORIENTED_EDGE('',*,*,#595,.F.);
#764=ORIENTED_EDGE('',*,*,#596,.T.);
#765=ORIENTED_EDGE('',*,*,#597,.T.);
#766=ORIENTED_EDGE('',*,*,#598,.F.);
#767=ORIENTED_EDGE('',*,*,#599,.F.);
#768=ORIENTED_EDGE('',*,*,#600,.T.);
#769=ORIENTED_EDGE('',*,*,#601,.T.);
#770=ORIENTED_EDGE('',*,*,#596,.F.);
#771=ORIENTED_EDGE('',*,*,#602,.F.);
#772=ORIENTED_EDGE('',*,*,#603,.T.);
#773=ORIENTED_EDGE('',*,*,#604,.T.);
#774=ORIENTED_EDGE('',*,*,#600,.F.);
#775=ORIENTED_EDGE('',*,*,#605,.F.);
#776=ORIENTED_EDGE('',*,*,#598,.T.);
#777=ORIENTED_EDGE('',*,*,#606,.T.);
#778=ORIENTED_EDGE('',*,*,#603,.F.);
#779=ORIENTED_EDGE('',*,*,#606,.F.);
#780=ORIENTED_EDGE('',*,*,#597,.F.);
#781=ORIENTED_EDGE('',*,*,#601,.F.);
#782=ORIENTED_EDGE('',*,*,#604,.F.);
#783=ORIENTED_EDGE('',*,*,#607,.F.);
#784=ORIENTED_EDGE('',*,*,#608,.T.);
#785=ORIENTED_EDGE('',*,*,#609,.F.);
#786=ORIENTED_EDGE('',*,*,#608,.F.);
#787=ORIENTED_EDGE('',*,*,#610,.F.);
#788=ORIENTED_EDGE('',*,*,#611,.T.);
#789=ORIENTED_EDGE('',*,*,#612,.F.);
#790=ORIENTED_EDGE('',*,*,#613,.F.);
#791=ORIENTED_EDGE('',*,*,#614,.F.);
#792=ORIENTED_EDGE('',*,*,#615,.T.);
#793=ORIENTED_EDGE('',*,*,#616,.F.);
#794=ORIENTED_EDGE('',*,*,#611,.F.);
#795=ORIENTED_EDGE('',*,*,#617,.F.);
#796=ORIENTED_EDGE('',*,*,#618,.T.);
#797=ORIENTED_EDGE('',*,*,#619,.F.);
#798=ORIENTED_EDGE('',*,*,#615,.F.);
#799=ORIENTED_EDGE('',*,*,#620,.F.);
#800=ORIENTED_EDGE('',*,*,#621,.T.);
#801=ORIENTED_EDGE('',*,*,#622,.F.);
#802=ORIENTED_EDGE('',*,*,#618,.F.);
#803=ORIENTED_EDGE('',*,*,#623,.F.);
#804=ORIENTED_EDGE('',*,*,#624,.T.);
#805=ORIENTED_EDGE('',*,*,#625,.F.);
#806=ORIENTED_EDGE('',*,*,#621,.F.);
#807=ORIENTED_EDGE('',*,*,#626,.F.);
#808=ORIENTED_EDGE('',*,*,#627,.T.);
#809=ORIENTED_EDGE('',*,*,#628,.F.);
#810=ORIENTED_EDGE('',*,*,#624,.F.);
#811=ORIENTED_EDGE('',*,*,#629,.F.);
#812=ORIENTED_EDGE('',*,*,#630,.T.);
#813=ORIENTED_EDGE('',*,*,#631,.F.);
#814=ORIENTED_EDGE('',*,*,#627,.F.);
#815=ORIENTED_EDGE('',*,*,#632,.F.);
#816=ORIENTED_EDGE('',*,*,#613,.T.);
#817=ORIENTED_EDGE('',*,*,#633,.F.);
#818=ORIENTED_EDGE('',*,*,#630,.F.);
#819=ORIENTED_EDGE('',*,*,#634,.T.);
#820=ORIENTED_EDGE('',*,*,#635,.T.);
#821=ORIENTED_EDGE('',*,*,#636,.T.);
#822=ORIENTED_EDGE('',*,*,#635,.F.);
#823=ORIENTED_EDGE('',*,*,#636,.F.);
#824=ORIENTED_EDGE('',*,*,#637,.T.);
#825=ORIENTED_EDGE('',*,*,#638,.F.);
#826=ORIENTED_EDGE('',*,*,#637,.F.);
#827=ORIENTED_EDGE('',*,*,#639,.T.);
#828=ORIENTED_EDGE('',*,*,#640,.T.);
#829=ORIENTED_EDGE('',*,*,#641,.T.);
#830=ORIENTED_EDGE('',*,*,#642,.T.);
#831=ORIENTED_EDGE('',*,*,#643,.T.);
#832=ORIENTED_EDGE('',*,*,#644,.T.);
#833=ORIENTED_EDGE('',*,*,#645,.T.);
#834=ORIENTED_EDGE('',*,*,#646,.T.);
#835=ORIENTED_EDGE('',*,*,#647,.T.);
#836=ORIENTED_EDGE('',*,*,#648,.T.);
#837=ORIENTED_EDGE('',*,*,#649,.T.);
#838=ORIENTED_EDGE('',*,*,#650,.T.);
#839=ORIENTED_EDGE('',*,*,#586,.T.);
#840=ORIENTED_EDGE('',*,*,#592,.T.);
#841=ORIENTED_EDGE('',*,*,#595,.T.);
#842=ORIENTED_EDGE('',*,*,#605,.T.);
#843=ORIENTED_EDGE('',*,*,#602,.T.);
#844=ORIENTED_EDGE('',*,*,#599,.T.);
#845=ORIENTED_EDGE('',*,*,#607,.T.);
#846=ORIENTED_EDGE('',*,*,#610,.T.);
#847=ORIENTED_EDGE('',*,*,#632,.T.);
#848=ORIENTED_EDGE('',*,*,#629,.T.);
#849=ORIENTED_EDGE('',*,*,#626,.T.);
#850=ORIENTED_EDGE('',*,*,#623,.T.);
#851=ORIENTED_EDGE('',*,*,#620,.T.);
#852=ORIENTED_EDGE('',*,*,#617,.T.);
#853=ORIENTED_EDGE('',*,*,#614,.T.);
#854=ORIENTED_EDGE('',*,*,#651,.T.);
#855=ORIENTED_EDGE('',*,*,#652,.T.);
#856=ORIENTED_EDGE('',*,*,#653,.T.);
#857=ORIENTED_EDGE('',*,*,#654,.T.);
#858=ORIENTED_EDGE('',*,*,#655,.T.);
#859=ORIENTED_EDGE('',*,*,#656,.T.);
#860=ORIENTED_EDGE('',*,*,#657,.T.);
#861=ORIENTED_EDGE('',*,*,#658,.T.);
#862=ORIENTED_EDGE('',*,*,#659,.T.);
#863=ORIENTED_EDGE('',*,*,#660,.T.);
#864=ORIENTED_EDGE('',*,*,#661,.T.);
#865=ORIENTED_EDGE('',*,*,#662,.T.);
#866=ORIENTED_EDGE('',*,*,#663,.T.);
#867=ORIENTED_EDGE('',*,*,#664,.T.);
#868=ORIENTED_EDGE('',*,*,#665,.T.);
#869=ORIENTED_EDGE('',*,*,#666,.T.);
#870=ORIENTED_EDGE('',*,*,#667,.T.);
#871=ORIENTED_EDGE('',*,*,#668,.T.);
#872=ORIENTED_EDGE('',*,*,#669,.T.);
#873=ORIENTED_EDGE('',*,*,#670,.T.);
#874=ORIENTED_EDGE('',*,*,#671,.T.);
#875=ORIENTED_EDGE('',*,*,#672,.T.);
#876=ORIENTED_EDGE('',*,*,#673,.T.);
#877=ORIENTED_EDGE('',*,*,#674,.T.);
#878=ORIENTED_EDGE('',*,*,#634,.F.);
#879=ORIENTED_EDGE('',*,*,#589,.T.);
#880=ORIENTED_EDGE('',*,*,#583,.T.);
#881=ORIENTED_EDGE('',*,*,#667,.F.);
#882=ORIENTED_EDGE('',*,*,#675,.T.);
#883=ORIENTED_EDGE('',*,*,#676,.F.);
#884=ORIENTED_EDGE('',*,*,#677,.F.);
#885=ORIENTED_EDGE('',*,*,#674,.F.);
#886=ORIENTED_EDGE('',*,*,#678,.T.);
#887=ORIENTED_EDGE('',*,*,#679,.F.);
#888=ORIENTED_EDGE('',*,*,#675,.F.);
#889=ORIENTED_EDGE('',*,*,#673,.F.);
#890=ORIENTED_EDGE('',*,*,#680,.T.);
#891=ORIENTED_EDGE('',*,*,#681,.F.);
#892=ORIENTED_EDGE('',*,*,#678,.F.);
#893=ORIENTED_EDGE('',*,*,#672,.F.);
#894=ORIENTED_EDGE('',*,*,#682,.T.);
#895=ORIENTED_EDGE('',*,*,#683,.F.);
#896=ORIENTED_EDGE('',*,*,#680,.F.);
#897=ORIENTED_EDGE('',*,*,#671,.F.);
#898=ORIENTED_EDGE('',*,*,#684,.T.);
#899=ORIENTED_EDGE('',*,*,#685,.F.);
#900=ORIENTED_EDGE('',*,*,#682,.F.);
#901=ORIENTED_EDGE('',*,*,#670,.F.);
#902=ORIENTED_EDGE('',*,*,#686,.T.);
#903=ORIENTED_EDGE('',*,*,#687,.F.);
#904=ORIENTED_EDGE('',*,*,#684,.F.);
#905=ORIENTED_EDGE('',*,*,#669,.F.);
#906=ORIENTED_EDGE('',*,*,#688,.T.);
#907=ORIENTED_EDGE('',*,*,#689,.F.);
#908=ORIENTED_EDGE('',*,*,#686,.F.);
#909=ORIENTED_EDGE('',*,*,#668,.F.);
#910=ORIENTED_EDGE('',*,*,#677,.T.);
#911=ORIENTED_EDGE('',*,*,#690,.F.);
#912=ORIENTED_EDGE('',*,*,#688,.F.);
#913=ORIENTED_EDGE('',*,*,#659,.F.);
#914=ORIENTED_EDGE('',*,*,#691,.T.);
#915=ORIENTED_EDGE('',*,*,#692,.F.);
#916=ORIENTED_EDGE('',*,*,#693,.F.);
#917=ORIENTED_EDGE('',*,*,#666,.F.);
#918=ORIENTED_EDGE('',*,*,#694,.T.);
#919=ORIENTED_EDGE('',*,*,#695,.F.);
#920=ORIENTED_EDGE('',*,*,#691,.F.);
#921=ORIENTED_EDGE('',*,*,#665,.F.);
#922=ORIENTED_EDGE('',*,*,#696,.T.);
#923=ORIENTED_EDGE('',*,*,#697,.F.);
#924=ORIENTED_EDGE('',*,*,#694,.F.);
#925=ORIENTED_EDGE('',*,*,#664,.F.);
#926=ORIENTED_EDGE('',*,*,#698,.T.);
#927=ORIENTED_EDGE('',*,*,#699,.F.);
#928=ORIENTED_EDGE('',*,*,#696,.F.);
#929=ORIENTED_EDGE('',*,*,#663,.F.);
#930=ORIENTED_EDGE('',*,*,#700,.T.);
#931=ORIENTED_EDGE('',*,*,#701,.F.);
#932=ORIENTED_EDGE('',*,*,#698,.F.);
#933=ORIENTED_EDGE('',*,*,#662,.F.);
#934=ORIENTED_EDGE('',*,*,#702,.T.);
#935=ORIENTED_EDGE('',*,*,#703,.F.);
#936=ORIENTED_EDGE('',*,*,#700,.F.);
#937=ORIENTED_EDGE('',*,*,#661,.F.);
#938=ORIENTED_EDGE('',*,*,#704,.T.);
#939=ORIENTED_EDGE('',*,*,#705,.F.);
#940=ORIENTED_EDGE('',*,*,#702,.F.);
#941=ORIENTED_EDGE('',*,*,#660,.F.);
#942=ORIENTED_EDGE('',*,*,#693,.T.);
#943=ORIENTED_EDGE('',*,*,#706,.F.);
#944=ORIENTED_EDGE('',*,*,#704,.F.);
#945=ORIENTED_EDGE('',*,*,#651,.F.);
#946=ORIENTED_EDGE('',*,*,#707,.T.);
#947=ORIENTED_EDGE('',*,*,#708,.F.);
#948=ORIENTED_EDGE('',*,*,#709,.F.);
#949=ORIENTED_EDGE('',*,*,#658,.F.);
#950=ORIENTED_EDGE('',*,*,#710,.T.);
#951=ORIENTED_EDGE('',*,*,#711,.F.);
#952=ORIENTED_EDGE('',*,*,#707,.F.);
#953=ORIENTED_EDGE('',*,*,#657,.F.);
#954=ORIENTED_EDGE('',*,*,#712,.T.);
#955=ORIENTED_EDGE('',*,*,#713,.F.);
#956=ORIENTED_EDGE('',*,*,#710,.F.);
#957=ORIENTED_EDGE('',*,*,#656,.F.);
#958=ORIENTED_EDGE('',*,*,#714,.T.);
#959=ORIENTED_EDGE('',*,*,#715,.F.);
#960=ORIENTED_EDGE('',*,*,#712,.F.);
#961=ORIENTED_EDGE('',*,*,#655,.F.);
#962=ORIENTED_EDGE('',*,*,#716,.T.);
#963=ORIENTED_EDGE('',*,*,#717,.F.);
#964=ORIENTED_EDGE('',*,*,#714,.F.);
#965=ORIENTED_EDGE('',*,*,#654,.F.);
#966=ORIENTED_EDGE('',*,*,#718,.T.);
#967=ORIENTED_EDGE('',*,*,#719,.F.);
#968=ORIENTED_EDGE('',*,*,#716,.F.);
#969=ORIENTED_EDGE('',*,*,#653,.F.);
#970=ORIENTED_EDGE('',*,*,#720,.T.);
#971=ORIENTED_EDGE('',*,*,#721,.F.);
#972=ORIENTED_EDGE('',*,*,#718,.F.);
#973=ORIENTED_EDGE('',*,*,#652,.F.);
#974=ORIENTED_EDGE('',*,*,#709,.T.);
#975=ORIENTED_EDGE('',*,*,#722,.F.);
#976=ORIENTED_EDGE('',*,*,#720,.F.);
#977=ORIENTED_EDGE('',*,*,#723,.F.);
#978=ORIENTED_EDGE('',*,*,#724,.F.);
#979=ORIENTED_EDGE('',*,*,#725,.T.);
#980=ORIENTED_EDGE('',*,*,#646,.F.);
#981=ORIENTED_EDGE('',*,*,#726,.F.);
#982=ORIENTED_EDGE('',*,*,#727,.T.);
#983=ORIENTED_EDGE('',*,*,#648,.F.);
#984=ORIENTED_EDGE('',*,*,#728,.F.);
#985=ORIENTED_EDGE('',*,*,#729,.T.);
#986=ORIENTED_EDGE('',*,*,#728,.T.);
#987=ORIENTED_EDGE('',*,*,#647,.F.);
#988=ORIENTED_EDGE('',*,*,#725,.F.);
#989=ORIENTED_EDGE('',*,*,#730,.F.);
#990=ORIENTED_EDGE('',*,*,#650,.F.);
#991=ORIENTED_EDGE('',*,*,#731,.F.);
#992=ORIENTED_EDGE('',*,*,#732,.F.);
#993=ORIENTED_EDGE('',*,*,#733,.T.);
#994=ORIENTED_EDGE('',*,*,#731,.T.);
#995=ORIENTED_EDGE('',*,*,#649,.F.);
#996=ORIENTED_EDGE('',*,*,#727,.F.);
#997=ORIENTED_EDGE('',*,*,#730,.T.);
#998=ORIENTED_EDGE('',*,*,#734,.T.);
#999=ORIENTED_EDGE('',*,*,#735,.T.);
#1000=ORIENTED_EDGE('',*,*,#639,.F.);
#1001=ORIENTED_EDGE('',*,*,#732,.T.);
#1002=ORIENTED_EDGE('',*,*,#733,.F.);
#1003=ORIENTED_EDGE('',*,*,#726,.T.);
#1004=ORIENTED_EDGE('',*,*,#729,.F.);
#1005=ORIENTED_EDGE('',*,*,#724,.T.);
#1006=ORIENTED_EDGE('',*,*,#736,.F.);
#1007=ORIENTED_EDGE('',*,*,#737,.T.);
#1008=ORIENTED_EDGE('',*,*,#738,.F.);
#1009=ORIENTED_EDGE('',*,*,#739,.T.);
#1010=ORIENTED_EDGE('',*,*,#740,.F.);
#1011=ORIENTED_EDGE('',*,*,#741,.T.);
#1012=ORIENTED_EDGE('',*,*,#734,.F.);
#1013=ORIENTED_EDGE('',*,*,#588,.T.);
#1014=ORIENTED_EDGE('',*,*,#708,.T.);
#1015=ORIENTED_EDGE('',*,*,#711,.T.);
#1016=ORIENTED_EDGE('',*,*,#713,.T.);
#1017=ORIENTED_EDGE('',*,*,#715,.T.);
#1018=ORIENTED_EDGE('',*,*,#717,.T.);
#1019=ORIENTED_EDGE('',*,*,#719,.T.);
#1020=ORIENTED_EDGE('',*,*,#721,.T.);
#1021=ORIENTED_EDGE('',*,*,#722,.T.);
#1022=ORIENTED_EDGE('',*,*,#692,.T.);
#1023=ORIENTED_EDGE('',*,*,#695,.T.);
#1024=ORIENTED_EDGE('',*,*,#697,.T.);
#1025=ORIENTED_EDGE('',*,*,#699,.T.);
#1026=ORIENTED_EDGE('',*,*,#701,.T.);
#1027=ORIENTED_EDGE('',*,*,#703,.T.);
#1028=ORIENTED_EDGE('',*,*,#705,.T.);
#1029=ORIENTED_EDGE('',*,*,#706,.T.);
#1030=ORIENTED_EDGE('',*,*,#676,.T.);
#1031=ORIENTED_EDGE('',*,*,#679,.T.);
#1032=ORIENTED_EDGE('',*,*,#681,.T.);
#1033=ORIENTED_EDGE('',*,*,#683,.T.);
#1034=ORIENTED_EDGE('',*,*,#685,.T.);
#1035=ORIENTED_EDGE('',*,*,#687,.T.);
#1036=ORIENTED_EDGE('',*,*,#689,.T.);
#1037=ORIENTED_EDGE('',*,*,#690,.T.);
#1038=ORIENTED_EDGE('',*,*,#638,.T.);
#1039=ORIENTED_EDGE('',*,*,#612,.T.);
#1040=ORIENTED_EDGE('',*,*,#616,.T.);
#1041=ORIENTED_EDGE('',*,*,#619,.T.);
#1042=ORIENTED_EDGE('',*,*,#622,.T.);
#1043=ORIENTED_EDGE('',*,*,#625,.T.);
#1044=ORIENTED_EDGE('',*,*,#628,.T.);
#1045=ORIENTED_EDGE('',*,*,#631,.T.);
#1046=ORIENTED_EDGE('',*,*,#633,.T.);
#1047=ORIENTED_EDGE('',*,*,#609,.T.);
#1048=ORIENTED_EDGE('',*,*,#594,.T.);
#1049=ORIENTED_EDGE('',*,*,#591,.T.);
#1050=ORIENTED_EDGE('',*,*,#585,.T.);
#1051=ORIENTED_EDGE('',*,*,#723,.T.);
#1052=ORIENTED_EDGE('',*,*,#645,.F.);
#1053=ORIENTED_EDGE('',*,*,#742,.F.);
#1054=ORIENTED_EDGE('',*,*,#736,.T.);
#1055=ORIENTED_EDGE('',*,*,#737,.F.);
#1056=ORIENTED_EDGE('',*,*,#742,.T.);
#1057=ORIENTED_EDGE('',*,*,#644,.F.);
#1058=ORIENTED_EDGE('',*,*,#743,.F.);
#1059=ORIENTED_EDGE('',*,*,#738,.T.);
#1060=ORIENTED_EDGE('',*,*,#743,.T.);
#1061=ORIENTED_EDGE('',*,*,#643,.F.);
#1062=ORIENTED_EDGE('',*,*,#744,.F.);
#1063=ORIENTED_EDGE('',*,*,#739,.F.);
#1064=ORIENTED_EDGE('',*,*,#744,.T.);
#1065=ORIENTED_EDGE('',*,*,#642,.F.);
#1066=ORIENTED_EDGE('',*,*,#745,.F.);
#1067=ORIENTED_EDGE('',*,*,#740,.T.);
#1068=ORIENTED_EDGE('',*,*,#745,.T.);
#1069=ORIENTED_EDGE('',*,*,#641,.F.);
#1070=ORIENTED_EDGE('',*,*,#746,.F.);
#1071=ORIENTED_EDGE('',*,*,#741,.F.);
#1072=ORIENTED_EDGE('',*,*,#746,.T.);
#1073=ORIENTED_EDGE('',*,*,#640,.F.);
#1074=ORIENTED_EDGE('',*,*,#735,.F.);
#1075=CYLINDRICAL_SURFACE('',#1175,1.7);
#1076=CYLINDRICAL_SURFACE('',#1178,1.7);
#1077=CYLINDRICAL_SURFACE('',#1181,1.7);
#1078=CYLINDRICAL_SURFACE('',#1184,1.7);
#1079=CYLINDRICAL_SURFACE('',#1192,7.);
#1080=CYLINDRICAL_SURFACE('',#1196,2.);
#1081=CYLINDRICAL_SURFACE('',#1200,2.);
#1082=CYLINDRICAL_SURFACE('',#1204,2.);
#1083=CYLINDRICAL_SURFACE('',#1208,2.);
#1084=CYLINDRICAL_SURFACE('',#1214,12.);
#1085=CYLINDRICAL_SURFACE('',#1236,3.);
#1086=CYLINDRICAL_SURFACE('',#1239,3.);
#1087=CYLINDRICAL_SURFACE('',#1242,3.);
#1088=CYLINDRICAL_SURFACE('',#1245,3.);
#1089=CYLINDRICAL_SURFACE('',#1248,8.00000000000001);
#1090=CYLINDRICAL_SURFACE('',#1251,7.99999999999999);
#1091=CYLINDRICAL_SURFACE('',#1254,8.);
#1092=CYLINDRICAL_SURFACE('',#1257,7.99999999999999);
#1093=CYLINDRICAL_SURFACE('',#1260,8.);
#1094=CYLINDRICAL_SURFACE('',#1263,8.);
#1095=CYLINDRICAL_SURFACE('',#1266,8.);
#1096=CYLINDRICAL_SURFACE('',#1269,8.);
#1097=CYLINDRICAL_SURFACE('',#1273,6.);
#1098=CYLINDRICAL_SURFACE('',#1276,6.00000000000001);
#1099=CYLINDRICAL_SURFACE('',#1278,6.);
#1100=CYLINDRICAL_SURFACE('',#1284,6.00000000000001);
#1101=CYLINDRICAL_SURFACE('',#1286,6.);
#1102=CYLINDRICAL_SURFACE('',#1288,6.00000000000001);
#1103=ADVANCED_FACE('',(#66),#1075,.F.);
#1104=ADVANCED_FACE('',(#67),#1076,.F.);
#1105=ADVANCED_FACE('',(#68),#1077,.F.);
#1106=ADVANCED_FACE('',(#69),#1078,.F.);
#1107=ADVANCED_FACE('',(#70),#37,.F.);
#1108=ADVANCED_FACE('',(#71),#38,.F.);
#1109=ADVANCED_FACE('',(#72),#39,.F.);
#1110=ADVANCED_FACE('',(#73),#40,.F.);
#1111=ADVANCED_FACE('',(#74),#41,.F.);
#1112=ADVANCED_FACE('',(#75),#1079,.F.);
#1113=ADVANCED_FACE('',(#76),#42,.F.);
#1114=ADVANCED_FACE('',(#77),#1080,.F.);
#1115=ADVANCED_FACE('',(#78),#43,.F.);
#1116=ADVANCED_FACE('',(#79),#1081,.F.);
#1117=ADVANCED_FACE('',(#80),#44,.F.);
#1118=ADVANCED_FACE('',(#81),#1082,.F.);
#1119=ADVANCED_FACE('',(#82),#45,.F.);
#1120=ADVANCED_FACE('',(#83),#1083,.F.);
#1121=ADVANCED_FACE('',(#84),#36,.F.);
#1122=ADVANCED_FACE('',(#85),#1084,.F.);
#1123=ADVANCED_FACE('',(#86,#15,#16,#17,#18,#19,#20,#21,#22,#23,#24,#25),
#46,.T.);
#1124=ADVANCED_FACE('',(#87),#47,.F.);
#1125=ADVANCED_FACE('',(#88),#1085,.F.);
#1126=ADVANCED_FACE('',(#89),#48,.F.);
#1127=ADVANCED_FACE('',(#90),#1086,.F.);
#1128=ADVANCED_FACE('',(#91),#49,.F.);
#1129=ADVANCED_FACE('',(#92),#1087,.F.);
#1130=ADVANCED_FACE('',(#93),#50,.F.);
#1131=ADVANCED_FACE('',(#94),#1088,.F.);
#1132=ADVANCED_FACE('',(#95),#51,.F.);
#1133=ADVANCED_FACE('',(#96),#1089,.F.);
#1134=ADVANCED_FACE('',(#97),#52,.F.);
#1135=ADVANCED_FACE('',(#98),#1090,.F.);
#1136=ADVANCED_FACE('',(#99),#53,.F.);
#1137=ADVANCED_FACE('',(#100),#1091,.F.);
#1138=ADVANCED_FACE('',(#101),#54,.F.);
#1139=ADVANCED_FACE('',(#102),#1092,.F.);
#1140=ADVANCED_FACE('',(#103),#55,.F.);
#1141=ADVANCED_FACE('',(#104),#1093,.F.);
#1142=ADVANCED_FACE('',(#105),#56,.F.);
#1143=ADVANCED_FACE('',(#106),#1094,.F.);
#1144=ADVANCED_FACE('',(#107),#57,.F.);
#1145=ADVANCED_FACE('',(#108),#1095,.F.);
#1146=ADVANCED_FACE('',(#109),#58,.F.);
#1147=ADVANCED_FACE('',(#110),#1096,.F.);
#1148=ADVANCED_FACE('',(#111),#59,.T.);
#1149=ADVANCED_FACE('',(#112),#60,.T.);
#1150=ADVANCED_FACE('',(#113),#1097,.T.);
#1151=ADVANCED_FACE('',(#114),#61,.T.);
#1152=ADVANCED_FACE('',(#115),#1098,.T.);
#1153=ADVANCED_FACE('',(#116),#1099,.T.);
#1154=ADVANCED_FACE('',(#117,#26,#27,#28,#29,#30,#31,#32,#33,#34,#35),#62,
 .F.);
#1155=ADVANCED_FACE('',(#118),#1100,.T.);
#1156=ADVANCED_FACE('',(#119),#63,.T.);
#1157=ADVANCED_FACE('',(#120),#1101,.T.);
#1158=ADVANCED_FACE('',(#121),#64,.T.);
#1159=ADVANCED_FACE('',(#122),#1102,.T.);
#1160=ADVANCED_FACE('',(#123),#65,.T.);
#1161=CLOSED_SHELL('',(#1103,#1104,#1105,#1106,#1107,#1108,#1109,#1110,
#1111,#1112,#1113,#1114,#1115,#1116,#1117,#1118,#1119,#1120,#1121,#1122,
#1123,#1124,#1125,#1126,#1127,#1128,#1129,#1130,#1131,#1132,#1133,#1134,
#1135,#1136,#1137,#1138,#1139,#1140,#1141,#1142,#1143,#1144,#1145,#1146,
#1147,#1148,#1149,#1150,#1151,#1152,#1153,#1154,#1155,#1156,#1157,#1158,
#1159,#1160));
#1162=DERIVED_UNIT_ELEMENT(#1164,1.);
#1163=DERIVED_UNIT_ELEMENT(#1966,-3.);
#1164=(
MASS_UNIT()
NAMED_UNIT(*)
SI_UNIT(.KILO.,.GRAM.)
);
#1165=DERIVED_UNIT((#1162,#1163));
#1166=MEASURE_REPRESENTATION_ITEM('density measure',
POSITIVE_RATIO_MEASURE(7850.),#1165);
#1167=PROPERTY_DEFINITION_REPRESENTATION(#1172,#1169);
#1168=PROPERTY_DEFINITION_REPRESENTATION(#1173,#1170);
#1169=REPRESENTATION('material name',(#1171),#1963);
#1170=REPRESENTATION('density',(#1166),#1963);
#1171=DESCRIPTIVE_REPRESENTATION_ITEM('\X2\92FC\X0\','\X2\92FC\X0\');
#1172=PROPERTY_DEFINITION('material property','material name',#1973);
#1173=PROPERTY_DEFINITION('material property','density of part',#1973);
#1174=AXIS2_PLACEMENT_3D('',#1629,#1290,#1291);
#1175=AXIS2_PLACEMENT_3D('',#1630,#1292,#1293);
#1176=AXIS2_PLACEMENT_3D('',#1632,#1294,#1295);
#1177=AXIS2_PLACEMENT_3D('',#1635,#1297,#1298);
#1178=AXIS2_PLACEMENT_3D('',#1636,#1299,#1300);
#1179=AXIS2_PLACEMENT_3D('',#1638,#1301,#1302);
#1180=AXIS2_PLACEMENT_3D('',#1641,#1304,#1305);
#1181=AXIS2_PLACEMENT_3D('',#1642,#1306,#1307);
#1182=AXIS2_PLACEMENT_3D('',#1644,#1308,#1309);
#1183=AXIS2_PLACEMENT_3D('',#1647,#1311,#1312);
#1184=AXIS2_PLACEMENT_3D('',#1648,#1313,#1314);
#1185=AXIS2_PLACEMENT_3D('',#1650,#1315,#1316);
#1186=AXIS2_PLACEMENT_3D('',#1653,#1318,#1319);
#1187=AXIS2_PLACEMENT_3D('',#1654,#1320,#1321);
#1188=AXIS2_PLACEMENT_3D('',#1663,#1326,#1327);
#1189=AXIS2_PLACEMENT_3D('',#1669,#1331,#1332);
#1190=AXIS2_PLACEMENT_3D('',#1675,#1336,#1337);
#1191=AXIS2_PLACEMENT_3D('',#1678,#1340,#1341);
#1192=AXIS2_PLACEMENT_3D('',#1679,#1342,#1343);
#1193=AXIS2_PLACEMENT_3D('',#1681,#1344,#1345);
#1194=AXIS2_PLACEMENT_3D('',#1684,#1347,#1348);
#1195=AXIS2_PLACEMENT_3D('',#1685,#1349,#1350);
#1196=AXIS2_PLACEMENT_3D('',#1694,#1355,#1356);
#1197=AXIS2_PLACEMENT_3D('',#1696,#1357,#1358);
#1198=AXIS2_PLACEMENT_3D('',#1699,#1360,#1361);
#1199=AXIS2_PLACEMENT_3D('',#1700,#1362,#1363);
#1200=AXIS2_PLACEMENT_3D('',#1706,#1367,#1368);
#1201=AXIS2_PLACEMENT_3D('',#1708,#1369,#1370);
#1202=AXIS2_PLACEMENT_3D('',#1711,#1372,#1373);
#1203=AXIS2_PLACEMENT_3D('',#1712,#1374,#1375);
#1204=AXIS2_PLACEMENT_3D('',#1718,#1379,#1380);
#1205=AXIS2_PLACEMENT_3D('',#1720,#1381,#1382);
#1206=AXIS2_PLACEMENT_3D('',#1723,#1384,#1385);
#1207=AXIS2_PLACEMENT_3D('',#1724,#1386,#1387);
#1208=AXIS2_PLACEMENT_3D('',#1730,#1391,#1392);
#1209=AXIS2_PLACEMENT_3D('',#1731,#1393,#1394);
#1210=AXIS2_PLACEMENT_3D('',#1732,#1395,#1396);
#1211=AXIS2_PLACEMENT_3D('',#1733,#1397,#1398);
#1212=AXIS2_PLACEMENT_3D('',#1735,#1399,#1400);
#1213=AXIS2_PLACEMENT_3D('',#1738,#1402,#1403);
#1214=AXIS2_PLACEMENT_3D('',#1739,#1404,#1405);
#1215=AXIS2_PLACEMENT_3D('',#1742,#1407,#1408);
#1216=AXIS2_PLACEMENT_3D('',#1743,#1409,#1410);
#1217=AXIS2_PLACEMENT_3D('',#1746,#1411,#1412);
#1218=AXIS2_PLACEMENT_3D('',#1750,#1414,#1415);
#1219=AXIS2_PLACEMENT_3D('',#1754,#1417,#1418);
#1220=AXIS2_PLACEMENT_3D('',#1758,#1420,#1421);
#1221=AXIS2_PLACEMENT_3D('',#1762,#1423,#1424);
#1222=AXIS2_PLACEMENT_3D('',#1766,#1426,#1427);
#1223=AXIS2_PLACEMENT_3D('',#1772,#1430,#1431);
#1224=AXIS2_PLACEMENT_3D('',#1776,#1433,#1434);
#1225=AXIS2_PLACEMENT_3D('',#1780,#1436,#1437);
#1226=AXIS2_PLACEMENT_3D('',#1783,#1439,#1440);
#1227=AXIS2_PLACEMENT_3D('',#1788,#1442,#1443);
#1228=AXIS2_PLACEMENT_3D('',#1792,#1445,#1446);
#1229=AXIS2_PLACEMENT_3D('',#1796,#1448,#1449);
#1230=AXIS2_PLACEMENT_3D('',#1799,#1451,#1452);
#1231=AXIS2_PLACEMENT_3D('',#1804,#1454,#1455);
#1232=AXIS2_PLACEMENT_3D('',#1808,#1457,#1458);
#1233=AXIS2_PLACEMENT_3D('',#1812,#1460,#1461);
#1234=AXIS2_PLACEMENT_3D('',#1815,#1463,#1464);
#1235=AXIS2_PLACEMENT_3D('',#1816,#1465,#1466);
#1236=AXIS2_PLACEMENT_3D('',#1822,#1470,#1471);
#1237=AXIS2_PLACEMENT_3D('',#1825,#1473,#1474);
#1238=AXIS2_PLACEMENT_3D('',#1826,#1475,#1476);
#1239=AXIS2_PLACEMENT_3D('',#1830,#1479,#1480);
#1240=AXIS2_PLACEMENT_3D('',#1833,#1482,#1483);
#1241=AXIS2_PLACEMENT_3D('',#1834,#1484,#1485);
#1242=AXIS2_PLACEMENT_3D('',#1838,#1488,#1489);
#1243=AXIS2_PLACEMENT_3D('',#1841,#1491,#1492);
#1244=AXIS2_PLACEMENT_3D('',#1842,#1493,#1494);
#1245=AXIS2_PLACEMENT_3D('',#1846,#1497,#1498);
#1246=AXIS2_PLACEMENT_3D('',#1847,#1499,#1500);
#1247=AXIS2_PLACEMENT_3D('',#1848,#1501,#1502);
#1248=AXIS2_PLACEMENT_3D('',#1854,#1506,#1507);
#1249=AXIS2_PLACEMENT_3D('',#1857,#1509,#1510);
#1250=AXIS2_PLACEMENT_3D('',#1858,#1511,#1512);
#1251=AXIS2_PLACEMENT_3D('',#1862,#1515,#1516);
#1252=AXIS2_PLACEMENT_3D('',#1865,#1518,#1519);
#1253=AXIS2_PLACEMENT_3D('',#1866,#1520,#1521);
#1254=AXIS2_PLACEMENT_3D('',#1870,#1524,#1525);
#1255=AXIS2_PLACEMENT_3D('',#1873,#1527,#1528);
#1256=AXIS2_PLACEMENT_3D('',#1874,#1529,#1530);
#1257=AXIS2_PLACEMENT_3D('',#1878,#1533,#1534);
#1258=AXIS2_PLACEMENT_3D('',#1879,#1535,#1536);
#1259=AXIS2_PLACEMENT_3D('',#1880,#1537,#1538);
#1260=AXIS2_PLACEMENT_3D('',#1886,#1542,#1543);
#1261=AXIS2_PLACEMENT_3D('',#1889,#1545,#1546);
#1262=AXIS2_PLACEMENT_3D('',#1890,#1547,#1548);
#1263=AXIS2_PLACEMENT_3D('',#1894,#1551,#1552);
#1264=AXIS2_PLACEMENT_3D('',#1897,#1554,#1555);
#1265=AXIS2_PLACEMENT_3D('',#1898,#1556,#1557);
#1266=AXIS2_PLACEMENT_3D('',#1902,#1560,#1561);
#1267=AXIS2_PLACEMENT_3D('',#1905,#1563,#1564);
#1268=AXIS2_PLACEMENT_3D('',#1906,#1565,#1566);
#1269=AXIS2_PLACEMENT_3D('',#1910,#1569,#1570);
#1270=AXIS2_PLACEMENT_3D('',#1911,#1571,#1572);
#1271=AXIS2_PLACEMENT_3D('',#1912,#1573,#1574);
#1272=AXIS2_PLACEMENT_3D('',#1918,#1578,#1579);
#1273=AXIS2_PLACEMENT_3D('',#1924,#1583,#1584);
#1274=AXIS2_PLACEMENT_3D('',#1925,#1585,#1586);
#1275=AXIS2_PLACEMENT_3D('',#1926,#1587,#1588);
#1276=AXIS2_PLACEMENT_3D('',#1932,#1592,#1593);
#1277=AXIS2_PLACEMENT_3D('',#1933,#1594,#1595);
#1278=AXIS2_PLACEMENT_3D('',#1934,#1596,#1597);
#1279=AXIS2_PLACEMENT_3D('',#1936,#1598,#1599);
#1280=AXIS2_PLACEMENT_3D('',#1938,#1601,#1602);
#1281=AXIS2_PLACEMENT_3D('',#1940,#1603,#1604);
#1282=AXIS2_PLACEMENT_3D('',#1944,#1606,#1607);
#1283=AXIS2_PLACEMENT_3D('',#1948,#1609,#1610);
#1284=AXIS2_PLACEMENT_3D('',#1950,#1612,#1613);
#1285=AXIS2_PLACEMENT_3D('',#1952,#1615,#1616);
#1286=AXIS2_PLACEMENT_3D('',#1954,#1618,#1619);
#1287=AXIS2_PLACEMENT_3D('',#1956,#1621,#1622);
#1288=AXIS2_PLACEMENT_3D('',#1958,#1624,#1625);
#1289=AXIS2_PLACEMENT_3D('',#1960,#1627,#1628);
#1290=DIRECTION('axis',(0.,0.,1.));
#1291=DIRECTION('refdir',(1.,0.,0.));
#1292=DIRECTION('center_axis',(0.,0.,-1.));
#1293=DIRECTION('ref_axis',(1.,0.,0.));
#1294=DIRECTION('center_axis',(0.,0.,-1.));
#1295=DIRECTION('ref_axis',(1.,0.,0.));
#1296=DIRECTION('',(0.,0.,-1.));
#1297=DIRECTION('center_axis',(0.,0.,1.));
#1298=DIRECTION('ref_axis',(1.,0.,0.));
#1299=DIRECTION('center_axis',(0.,0.,-1.));
#1300=DIRECTION('ref_axis',(1.,0.,0.));
#1301=DIRECTION('center_axis',(0.,0.,-1.));
#1302=DIRECTION('ref_axis',(1.,0.,0.));
#1303=DIRECTION('',(0.,0.,-1.));
#1304=DIRECTION('center_axis',(0.,0.,1.));
#1305=DIRECTION('ref_axis',(1.,0.,0.));
#1306=DIRECTION('center_axis',(0.,0.,-1.));
#1307=DIRECTION('ref_axis',(1.,0.,0.));
#1308=DIRECTION('center_axis',(0.,0.,-1.));
#1309=DIRECTION('ref_axis',(1.,0.,0.));
#1310=DIRECTION('',(0.,0.,-1.));
#1311=DIRECTION('center_axis',(0.,0.,1.));
#1312=DIRECTION('ref_axis',(1.,0.,0.));
#1313=DIRECTION('center_axis',(0.,0.,-1.));
#1314=DIRECTION('ref_axis',(1.,0.,0.));
#1315=DIRECTION('center_axis',(0.,0.,-1.));
#1316=DIRECTION('ref_axis',(1.,0.,0.));
#1317=DIRECTION('',(0.,0.,-1.));
#1318=DIRECTION('center_axis',(0.,0.,1.));
#1319=DIRECTION('ref_axis',(1.,0.,0.));
#1320=DIRECTION('center_axis',(0.,1.,0.));
#1321=DIRECTION('ref_axis',(1.,0.,0.));
#1322=DIRECTION('',(1.,0.,0.));
#1323=DIRECTION('',(0.,0.,-1.));
#1324=DIRECTION('',(1.,0.,0.));
#1325=DIRECTION('',(0.,0.,-1.));
#1326=DIRECTION('center_axis',(-1.,0.,0.));
#1327=DIRECTION('ref_axis',(0.,1.,0.));
#1328=DIRECTION('',(0.,1.,0.));
#1329=DIRECTION('',(0.,0.,-1.));
#1330=DIRECTION('',(0.,1.,0.));
#1331=DIRECTION('center_axis',(0.,-1.,0.));
#1332=DIRECTION('ref_axis',(-1.,0.,0.));
#1333=DIRECTION('',(-1.,0.,0.));
#1334=DIRECTION('',(0.,0.,-1.));
#1335=DIRECTION('',(-1.,0.,0.));
#1336=DIRECTION('center_axis',(1.,0.,0.));
#1337=DIRECTION('ref_axis',(0.,-1.,0.));
#1338=DIRECTION('',(0.,-1.,0.));
#1339=DIRECTION('',(0.,-1.,0.));
#1340=DIRECTION('center_axis',(0.,0.,-1.));
#1341=DIRECTION('ref_axis',(-1.,0.,0.));
#1342=DIRECTION('center_axis',(0.,0.,-1.));
#1343=DIRECTION('ref_axis',(1.,0.,0.));
#1344=DIRECTION('center_axis',(0.,0.,-1.));
#1345=DIRECTION('ref_axis',(1.,0.,0.));
#1346=DIRECTION('',(0.,0.,-1.));
#1347=DIRECTION('center_axis',(0.,0.,1.));
#1348=DIRECTION('ref_axis',(1.,0.,0.));
#1349=DIRECTION('center_axis',(1.,2.77555756156289E-16,0.));
#1350=DIRECTION('ref_axis',(2.77555756156289E-16,-1.,0.));
#1351=DIRECTION('',(2.77555756156289E-16,-1.,0.));
#1352=DIRECTION('',(0.,0.,-1.));
#1353=DIRECTION('',(-2.77555756156289E-16,1.,0.));
#1354=DIRECTION('',(0.,0.,-1.));
#1355=DIRECTION('center_axis',(0.,0.,-1.));
#1356=DIRECTION('ref_axis',(1.,0.,0.));
#1357=DIRECTION('center_axis',(0.,0.,-1.));
#1358=DIRECTION('ref_axis',(1.,0.,0.));
#1359=DIRECTION('',(0.,0.,-1.));
#1360=DIRECTION('center_axis',(0.,0.,1.));
#1361=DIRECTION('ref_axis',(1.,0.,0.));
#1362=DIRECTION('center_axis',(0.,1.,0.));
#1363=DIRECTION('ref_axis',(1.,0.,0.));
#1364=DIRECTION('',(1.,0.,0.));
#1365=DIRECTION('',(0.,0.,-1.));
#1366=DIRECTION('',(-1.,0.,0.));
#1367=DIRECTION('center_axis',(0.,0.,-1.));
#1368=DIRECTION('ref_axis',(0.,1.,0.));
#1369=DIRECTION('center_axis',(0.,0.,-1.));
#1370=DIRECTION('ref_axis',(0.,1.,0.));
#1371=DIRECTION('',(0.,0.,-1.));
#1372=DIRECTION('center_axis',(0.,0.,1.));
#1373=DIRECTION('ref_axis',(0.,1.,0.));
#1374=DIRECTION('center_axis',(-1.,-2.77555756156289E-16,0.));
#1375=DIRECTION('ref_axis',(-2.77555756156289E-16,1.,0.));
#1376=DIRECTION('',(-2.77555756156289E-16,1.,0.));
#1377=DIRECTION('',(0.,0.,-1.));
#1378=DIRECTION('',(2.77555756156289E-16,-1.,0.));
#1379=DIRECTION('center_axis',(0.,0.,-1.));
#1380=DIRECTION('ref_axis',(-1.,0.,0.));
#1381=DIRECTION('center_axis',(0.,0.,-1.));
#1382=DIRECTION('ref_axis',(-1.,0.,0.));
#1383=DIRECTION('',(0.,0.,-1.));
#1384=DIRECTION('center_axis',(0.,0.,1.));
#1385=DIRECTION('ref_axis',(-1.,0.,0.));
#1386=DIRECTION('center_axis',(0.,-1.,0.));
#1387=DIRECTION('ref_axis',(-1.,0.,0.));
#1388=DIRECTION('',(-1.,0.,0.));
#1389=DIRECTION('',(0.,0.,-1.));
#1390=DIRECTION('',(1.,0.,0.));
#1391=DIRECTION('center_axis',(0.,0.,-1.));
#1392=DIRECTION('ref_axis',(0.,-1.,0.));
#1393=DIRECTION('center_axis',(0.,0.,-1.));
#1394=DIRECTION('ref_axis',(0.,-1.,0.));
#1395=DIRECTION('center_axis',(0.,0.,1.));
#1396=DIRECTION('ref_axis',(0.,-1.,0.));
#1397=DIRECTION('center_axis',(0.,0.,1.));
#1398=DIRECTION('ref_axis',(1.,0.,0.));
#1399=DIRECTION('center_axis',(0.,0.,1.));
#1400=DIRECTION('ref_axis',(1.,0.,0.));
#1401=DIRECTION('',(0.707106781186548,8.65956056235494E-17,-0.707106781186547));
#1402=DIRECTION('center_axis',(0.,0.,-1.));
#1403=DIRECTION('ref_axis',(1.,0.,0.));
#1404=DIRECTION('center_axis',(0.,0.,-1.));
#1405=DIRECTION('ref_axis',(1.,0.,0.));
#1406=DIRECTION('',(0.,0.,-1.));
#1407=DIRECTION('center_axis',(0.,0.,1.));
#1408=DIRECTION('ref_axis',(1.,0.,0.));
#1409=DIRECTION('center_axis',(0.,0.,1.));
#1410=DIRECTION('ref_axis',(1.,0.,0.));
#1411=DIRECTION('center_axis',(0.,0.,1.));
#1412=DIRECTION('ref_axis',(0.,-1.,0.));
#1413=DIRECTION('',(1.85037170770859E-16,1.,0.));
#1414=DIRECTION('center_axis',(0.,0.,1.));
#1415=DIRECTION('ref_axis',(1.,0.,0.));
#1416=DIRECTION('',(-1.,-1.11022302462516E-16,0.));
#1417=DIRECTION('center_axis',(0.,0.,1.));
#1418=DIRECTION('ref_axis',(0.,1.,0.));
#1419=DIRECTION('',(-1.85037170770859E-16,-1.,0.));
#1420=DIRECTION('center_axis',(0.,0.,1.));
#1421=DIRECTION('ref_axis',(-1.,0.,0.));
#1422=DIRECTION('',(0.,-1.,0.));
#1423=DIRECTION('center_axis',(0.,0.,1.));
#1424=DIRECTION('ref_axis',(-1.,0.,0.));
#1425=DIRECTION('',(1.,0.,0.));
#1426=DIRECTION('center_axis',(0.,0.,1.));
#1427=DIRECTION('ref_axis',(7.40148683083436E-16,-1.,0.));
#1428=DIRECTION('',(1.05735526154777E-16,1.,0.));
#1429=DIRECTION('',(-3.70074341541719E-16,-1.,0.));
#1430=DIRECTION('center_axis',(0.,0.,-1.));
#1431=DIRECTION('ref_axis',(8.32667268468868E-16,-1.,0.));
#1432=DIRECTION('',(-1.,-2.22044604925031E-15,0.));
#1433=DIRECTION('center_axis',(0.,0.,-1.));
#1434=DIRECTION('ref_axis',(-1.,5.55111512312579E-16,0.));
#1435=DIRECTION('',(-7.40148683083438E-16,1.,0.));
#1436=DIRECTION('center_axis',(0.,0.,-1.));
#1437=DIRECTION('ref_axis',(0.,1.,0.));
#1438=DIRECTION('',(1.,2.22044604925031E-15,0.));
#1439=DIRECTION('center_axis',(0.,0.,-1.));
#1440=DIRECTION('ref_axis',(1.,-1.11022302462516E-15,0.));
#1441=DIRECTION('',(0.,-1.,0.));
#1442=DIRECTION('center_axis',(0.,0.,-1.));
#1443=DIRECTION('ref_axis',(5.55111512312579E-16,-1.,0.));
#1444=DIRECTION('',(-1.,-1.11022302462515E-15,0.));
#1445=DIRECTION('center_axis',(0.,0.,-1.));
#1446=DIRECTION('ref_axis',(-1.,1.11022302462516E-15,0.));
#1447=DIRECTION('',(3.70074341541719E-16,1.,0.));
#1448=DIRECTION('center_axis',(0.,0.,-1.));
#1449=DIRECTION('ref_axis',(2.77555756156289E-16,1.,0.));
#1450=DIRECTION('',(1.,0.,0.));
#1451=DIRECTION('center_axis',(0.,0.,-1.));
#1452=DIRECTION('ref_axis',(1.,0.,0.));
#1453=DIRECTION('',(-2.01858731750028E-16,-1.,0.));
#1454=DIRECTION('center_axis',(0.,0.,-1.));
#1455=DIRECTION('ref_axis',(0.,-1.,0.));
#1456=DIRECTION('',(-1.,5.28677630773884E-17,0.));
#1457=DIRECTION('center_axis',(0.,0.,-1.));
#1458=DIRECTION('ref_axis',(-1.,0.,0.));
#1459=DIRECTION('',(0.,1.,0.));
#1460=DIRECTION('center_axis',(0.,0.,-1.));
#1461=DIRECTION('ref_axis',(0.,1.,0.));
#1462=DIRECTION('',(1.,-1.05735526154777E-16,0.));
#1463=DIRECTION('center_axis',(0.,0.,-1.));
#1464=DIRECTION('ref_axis',(1.,0.,0.));
#1465=DIRECTION('center_axis',(1.,-2.01858731750028E-16,0.));
#1466=DIRECTION('ref_axis',(-2.01858731750028E-16,-1.,0.));
#1467=DIRECTION('',(0.,0.,-1.));
#1468=DIRECTION('',(2.01858731750028E-16,1.,0.));
#1469=DIRECTION('',(0.,0.,-1.));
#1470=DIRECTION('center_axis',(0.,0.,-1.));
#1471=DIRECTION('ref_axis',(1.,0.,0.));
#1472=DIRECTION('',(0.,0.,-1.));
#1473=DIRECTION('center_axis',(0.,0.,1.));
#1474=DIRECTION('ref_axis',(1.,0.,0.));
#1475=DIRECTION('center_axis',(1.05735526154777E-16,1.,0.));
#1476=DIRECTION('ref_axis',(1.,-1.05735526154777E-16,0.));
#1477=DIRECTION('',(0.,0.,-1.));
#1478=DIRECTION('',(-1.,1.05735526154777E-16,0.));
#1479=DIRECTION('center_axis',(0.,0.,-1.));
#1480=DIRECTION('ref_axis',(0.,1.,0.));
#1481=DIRECTION('',(0.,0.,-1.));
#1482=DIRECTION('center_axis',(0.,0.,1.));
#1483=DIRECTION('ref_axis',(0.,1.,0.));
#1484=DIRECTION('center_axis',(-1.,0.,0.));
#1485=DIRECTION('ref_axis',(0.,1.,0.));
#1486=DIRECTION('',(0.,0.,-1.));
#1487=DIRECTION('',(0.,-1.,0.));
#1488=DIRECTION('center_axis',(0.,0.,-1.));
#1489=DIRECTION('ref_axis',(-1.,0.,0.));
#1490=DIRECTION('',(0.,0.,-1.));
#1491=DIRECTION('center_axis',(0.,0.,1.));
#1492=DIRECTION('ref_axis',(-1.,0.,0.));
#1493=DIRECTION('center_axis',(-5.28677630773884E-17,-1.,0.));
#1494=DIRECTION('ref_axis',(-1.,5.28677630773884E-17,0.));
#1495=DIRECTION('',(0.,0.,-1.));
#1496=DIRECTION('',(1.,-5.28677630773884E-17,0.));
#1497=DIRECTION('center_axis',(0.,0.,-1.));
#1498=DIRECTION('ref_axis',(0.,-1.,0.));
#1499=DIRECTION('center_axis',(0.,0.,1.));
#1500=DIRECTION('ref_axis',(0.,-1.,0.));
#1501=DIRECTION('center_axis',(1.,0.,0.));
#1502=DIRECTION('ref_axis',(0.,-1.,0.));
#1503=DIRECTION('',(0.,0.,-1.));
#1504=DIRECTION('',(0.,1.,0.));
#1505=DIRECTION('',(0.,0.,-1.));
#1506=DIRECTION('center_axis',(0.,0.,-1.));
#1507=DIRECTION('ref_axis',(1.,0.,0.));
#1508=DIRECTION('',(0.,0.,-1.));
#1509=DIRECTION('center_axis',(0.,0.,1.));
#1510=DIRECTION('ref_axis',(1.,0.,0.));
#1511=DIRECTION('center_axis',(0.,1.,0.));
#1512=DIRECTION('ref_axis',(1.,0.,0.));
#1513=DIRECTION('',(0.,0.,-1.));
#1514=DIRECTION('',(-1.,0.,0.));
#1515=DIRECTION('center_axis',(0.,0.,-1.));
#1516=DIRECTION('ref_axis',(2.77555756156289E-16,1.,0.));
#1517=DIRECTION('',(0.,0.,-1.));
#1518=DIRECTION('center_axis',(0.,0.,1.));
#1519=DIRECTION('ref_axis',(2.77555756156289E-16,1.,0.));
#1520=DIRECTION('center_axis',(-1.,3.70074341541719E-16,0.));
#1521=DIRECTION('ref_axis',(3.70074341541719E-16,1.,0.));
#1522=DIRECTION('',(0.,0.,-1.));
#1523=DIRECTION('',(-3.70074341541719E-16,-1.,0.));
#1524=DIRECTION('center_axis',(0.,0.,-1.));
#1525=DIRECTION('ref_axis',(-1.,1.11022302462516E-15,0.));
#1526=DIRECTION('',(0.,0.,-1.));
#1527=DIRECTION('center_axis',(0.,0.,1.));
#1528=DIRECTION('ref_axis',(-1.,1.11022302462516E-15,0.));
#1529=DIRECTION('center_axis',(1.11022302462515E-15,-1.,0.));
#1530=DIRECTION('ref_axis',(-1.,-1.11022302462515E-15,0.));
#1531=DIRECTION('',(0.,0.,-1.));
#1532=DIRECTION('',(1.,1.11022302462515E-15,0.));
#1533=DIRECTION('center_axis',(0.,0.,-1.));
#1534=DIRECTION('ref_axis',(5.55111512312579E-16,-1.,0.));
#1535=DIRECTION('center_axis',(0.,0.,1.));
#1536=DIRECTION('ref_axis',(5.55111512312579E-16,-1.,0.));
#1537=DIRECTION('center_axis',(1.,-3.70074341541719E-16,0.));
#1538=DIRECTION('ref_axis',(-3.70074341541719E-16,-1.,0.));
#1539=DIRECTION('',(0.,0.,-1.));
#1540=DIRECTION('',(3.70074341541719E-16,1.,0.));
#1541=DIRECTION('',(0.,0.,-1.));
#1542=DIRECTION('center_axis',(0.,0.,-1.));
#1543=DIRECTION('ref_axis',(1.,-1.11022302462516E-15,0.));
#1544=DIRECTION('',(0.,0.,-1.));
#1545=DIRECTION('center_axis',(0.,0.,1.));
#1546=DIRECTION('ref_axis',(1.,-1.11022302462516E-15,0.));
#1547=DIRECTION('center_axis',(-2.22044604925031E-15,1.,0.));
#1548=DIRECTION('ref_axis',(1.,2.22044604925031E-15,0.));
#1549=DIRECTION('',(0.,0.,-1.));
#1550=DIRECTION('',(-1.,-2.22044604925031E-15,0.));
#1551=DIRECTION('center_axis',(0.,0.,-1.));
#1552=DIRECTION('ref_axis',(0.,1.,0.));
#1553=DIRECTION('',(0.,0.,-1.));
#1554=DIRECTION('center_axis',(0.,0.,1.));
#1555=DIRECTION('ref_axis',(0.,1.,0.));
#1556=DIRECTION('center_axis',(-1.,-7.40148683083438E-16,0.));
#1557=DIRECTION('ref_axis',(-7.40148683083438E-16,1.,0.));
#1558=DIRECTION('',(0.,0.,-1.));
#1559=DIRECTION('',(7.40148683083438E-16,-1.,0.));
#1560=DIRECTION('center_axis',(0.,0.,-1.));
#1561=DIRECTION('ref_axis',(-1.,5.55111512312579E-16,0.));
#1562=DIRECTION('',(0.,0.,-1.));
#1563=DIRECTION('center_axis',(0.,0.,1.));
#1564=DIRECTION('ref_axis',(-1.,5.55111512312579E-16,0.));
#1565=DIRECTION('center_axis',(2.22044604925031E-15,-1.,0.));
#1566=DIRECTION('ref_axis',(-1.,-2.22044604925031E-15,0.));
#1567=DIRECTION('',(0.,0.,-1.));
#1568=DIRECTION('',(1.,2.22044604925031E-15,0.));
#1569=DIRECTION('center_axis',(0.,0.,-1.));
#1570=DIRECTION('ref_axis',(8.32667268468868E-16,-1.,0.));
#1571=DIRECTION('center_axis',(0.,0.,1.));
#1572=DIRECTION('ref_axis',(8.32667268468868E-16,-1.,0.));
#1573=DIRECTION('center_axis',(-1.,0.,0.));
#1574=DIRECTION('ref_axis',(0.,-1.,0.));
#1575=DIRECTION('',(0.,0.,1.));
#1576=DIRECTION('',(0.,1.,0.));
#1577=DIRECTION('',(0.,0.,1.));
#1578=DIRECTION('center_axis',(0.,-1.,0.));
#1579=DIRECTION('ref_axis',(1.,0.,0.));
#1580=DIRECTION('',(-1.,0.,0.));
#1581=DIRECTION('',(0.,0.,1.));
#1582=DIRECTION('',(0.,0.,1.));
#1583=DIRECTION('center_axis',(0.,0.,1.));
#1584=DIRECTION('ref_axis',(-1.,0.,0.));
#1585=DIRECTION('center_axis',(0.,0.,1.));
#1586=DIRECTION('ref_axis',(-1.,0.,0.));
#1587=DIRECTION('center_axis',(1.,-1.05735526154777E-16,0.));
#1588=DIRECTION('ref_axis',(1.05735526154777E-16,1.,0.));
#1589=DIRECTION('',(0.,0.,-1.));
#1590=DIRECTION('',(0.,0.,1.));
#1591=DIRECTION('',(-1.05735526154777E-16,-1.,0.));
#1592=DIRECTION('center_axis',(0.,0.,1.));
#1593=DIRECTION('ref_axis',(7.40148683083436E-16,-1.,0.));
#1594=DIRECTION('center_axis',(0.,0.,1.));
#1595=DIRECTION('ref_axis',(7.40148683083436E-16,-1.,0.));
#1596=DIRECTION('center_axis',(0.,0.,1.));
#1597=DIRECTION('ref_axis',(0.,-1.,0.));
#1598=DIRECTION('center_axis',(0.,0.,1.));
#1599=DIRECTION('ref_axis',(0.,-1.,0.));
#1600=DIRECTION('',(0.,0.,1.));
#1601=DIRECTION('center_axis',(0.,0.,1.));
#1602=DIRECTION('ref_axis',(1.,0.,0.));
#1603=DIRECTION('center_axis',(0.,0.,1.));
#1604=DIRECTION('ref_axis',(-1.,0.,0.));
#1605=DIRECTION('',(1.85037170770859E-16,1.,0.));
#1606=DIRECTION('center_axis',(0.,0.,1.));
#1607=DIRECTION('ref_axis',(0.,1.,0.));
#1608=DIRECTION('',(1.,1.11022302462516E-16,0.));
#1609=DIRECTION('center_axis',(0.,0.,1.));
#1610=DIRECTION('ref_axis',(1.,0.,0.));
#1611=DIRECTION('',(-1.85037170770859E-16,-1.,0.));
#1612=DIRECTION('center_axis',(0.,0.,1.));
#1613=DIRECTION('ref_axis',(-1.,0.,0.));
#1614=DIRECTION('',(0.,0.,1.));
#1615=DIRECTION('center_axis',(-1.,1.85037170770859E-16,0.));
#1616=DIRECTION('ref_axis',(-1.85037170770859E-16,-1.,0.));
#1617=DIRECTION('',(0.,0.,1.));
#1618=DIRECTION('center_axis',(0.,0.,1.));
#1619=DIRECTION('ref_axis',(0.,1.,0.));
#1620=DIRECTION('',(0.,0.,1.));
#1621=DIRECTION('center_axis',(-1.11022302462516E-16,1.,0.));
#1622=DIRECTION('ref_axis',(-1.,-1.11022302462516E-16,0.));
#1623=DIRECTION('',(0.,0.,1.));
#1624=DIRECTION('center_axis',(0.,0.,1.));
#1625=DIRECTION('ref_axis',(1.,0.,0.));
#1626=DIRECTION('',(0.,0.,1.));
#1627=DIRECTION('center_axis',(1.,-1.85037170770859E-16,0.));
#1628=DIRECTION('ref_axis',(1.85037170770859E-16,1.,0.));
#1629=CARTESIAN_POINT('',(0.,0.,0.));
#1630=CARTESIAN_POINT('Origin',(37.,-62.,10.11));
#1631=CARTESIAN_POINT('',(35.3,-62.,10.11));
#1632=CARTESIAN_POINT('Origin',(37.,-62.,10.11));
#1633=CARTESIAN_POINT('',(35.3,-62.,7.71));
#1634=CARTESIAN_POINT('',(35.3,-62.,10.11));
#1635=CARTESIAN_POINT('Origin',(37.,-62.,7.71));
#1636=CARTESIAN_POINT('Origin',(-37.,-62.,10.11));
#1637=CARTESIAN_POINT('',(-38.7,-62.,10.11));
#1638=CARTESIAN_POINT('Origin',(-37.,-62.,10.11));
#1639=CARTESIAN_POINT('',(-38.7,-62.,7.71));
#1640=CARTESIAN_POINT('',(-38.7,-62.,10.11));
#1641=CARTESIAN_POINT('Origin',(-37.,-62.,7.71));
#1642=CARTESIAN_POINT('Origin',(40.,62.,10.11));
#1643=CARTESIAN_POINT('',(38.3,62.,10.11));
#1644=CARTESIAN_POINT('Origin',(40.,62.,10.11));
#1645=CARTESIAN_POINT('',(38.3,62.,7.71));
#1646=CARTESIAN_POINT('',(38.3,62.,10.11));
#1647=CARTESIAN_POINT('Origin',(40.,62.,7.71));
#1648=CARTESIAN_POINT('Origin',(-40.,62.,10.11));
#1649=CARTESIAN_POINT('',(-41.7,62.,10.11));
#1650=CARTESIAN_POINT('Origin',(-40.,62.,10.11));
#1651=CARTESIAN_POINT('',(-41.7,62.,7.71));
#1652=CARTESIAN_POINT('',(-41.7,62.,10.11));
#1653=CARTESIAN_POINT('Origin',(-40.,62.,7.71));
#1654=CARTESIAN_POINT('Origin',(-12.,16.1,10.11));
#1655=CARTESIAN_POINT('',(-12.,16.1,10.11));
#1656=CARTESIAN_POINT('',(12.,16.1,10.11));
#1657=CARTESIAN_POINT('',(-6.,16.1,10.11));
#1658=CARTESIAN_POINT('',(-12.,16.1,9.51));
#1659=CARTESIAN_POINT('',(-12.,16.1,10.11));
#1660=CARTESIAN_POINT('',(12.,16.1,9.51));
#1661=CARTESIAN_POINT('',(12.,16.1,9.51));
#1662=CARTESIAN_POINT('',(12.,16.1,10.11));
#1663=CARTESIAN_POINT('Origin',(-12.,14.9,10.11));
#1664=CARTESIAN_POINT('',(-12.,14.9,10.11));
#1665=CARTESIAN_POINT('',(-12.,29.45,10.11));
#1666=CARTESIAN_POINT('',(-12.,14.9,9.51));
#1667=CARTESIAN_POINT('',(-12.,14.9,10.11));
#1668=CARTESIAN_POINT('',(-12.,16.1,9.51));
#1669=CARTESIAN_POINT('Origin',(12.,14.9,10.11));
#1670=CARTESIAN_POINT('',(12.,14.9,10.11));
#1671=CARTESIAN_POINT('',(6.,14.9,10.11));
#1672=CARTESIAN_POINT('',(12.,14.9,9.51));
#1673=CARTESIAN_POINT('',(12.,14.9,10.11));
#1674=CARTESIAN_POINT('',(-12.,14.9,9.51));
#1675=CARTESIAN_POINT('Origin',(12.,16.1,10.11));
#1676=CARTESIAN_POINT('',(12.,30.05,10.11));
#1677=CARTESIAN_POINT('',(12.,14.9,9.51));
#1678=CARTESIAN_POINT('Origin',(0.,15.5,9.51));
#1679=CARTESIAN_POINT('Origin',(0.,-59.97,10.11));
#1680=CARTESIAN_POINT('',(-7.,-59.97,10.11));
#1681=CARTESIAN_POINT('Origin',(0.,-59.97,10.11));
#1682=CARTESIAN_POINT('',(-7.,-59.97,7.71));
#1683=CARTESIAN_POINT('',(-7.,-59.97,10.11));
#1684=CARTESIAN_POINT('Origin',(0.,-59.97,7.71));
#1685=CARTESIAN_POINT('Origin',(9.5,66.,10.11));
#1686=CARTESIAN_POINT('',(9.5,66.,10.11));
#1687=CARTESIAN_POINT('',(9.5,58.,10.11));
#1688=CARTESIAN_POINT('',(9.5,55.,10.11));
#1689=CARTESIAN_POINT('',(9.5,66.,7.71));
#1690=CARTESIAN_POINT('',(9.5,66.,10.11));
#1691=CARTESIAN_POINT('',(9.5,58.,7.71));
#1692=CARTESIAN_POINT('',(9.5,55.,7.71));
#1693=CARTESIAN_POINT('',(9.5,58.,10.11));
#1694=CARTESIAN_POINT('Origin',(7.5,66.,10.11));
#1695=CARTESIAN_POINT('',(7.5,68.,10.11));
#1696=CARTESIAN_POINT('Origin',(7.5,66.,10.11));
#1697=CARTESIAN_POINT('',(7.5,68.,7.71));
#1698=CARTESIAN_POINT('',(7.5,68.,10.11));
#1699=CARTESIAN_POINT('Origin',(7.5,66.,7.71));
#1700=CARTESIAN_POINT('Origin',(-14.5,68.,10.11));
#1701=CARTESIAN_POINT('',(-14.5,68.,10.11));
#1702=CARTESIAN_POINT('',(-7.25,68.,10.11));
#1703=CARTESIAN_POINT('',(-14.5,68.,7.71));
#1704=CARTESIAN_POINT('',(-14.5,68.,10.11));
#1705=CARTESIAN_POINT('',(-7.25,68.,7.71));
#1706=CARTESIAN_POINT('Origin',(-14.5,66.,10.11));
#1707=CARTESIAN_POINT('',(-16.5,66.,10.11));
#1708=CARTESIAN_POINT('Origin',(-14.5,66.,10.11));
#1709=CARTESIAN_POINT('',(-16.5,66.,7.71));
#1710=CARTESIAN_POINT('',(-16.5,66.,10.11));
#1711=CARTESIAN_POINT('Origin',(-14.5,66.,7.71));
#1712=CARTESIAN_POINT('Origin',(-16.5,58.,10.11));
#1713=CARTESIAN_POINT('',(-16.5,58.,10.11));
#1714=CARTESIAN_POINT('',(-16.5,51.,10.11));
#1715=CARTESIAN_POINT('',(-16.5,58.,7.71));
#1716=CARTESIAN_POINT('',(-16.5,58.,10.11));
#1717=CARTESIAN_POINT('',(-16.5,51.,7.71));
#1718=CARTESIAN_POINT('Origin',(-14.5,58.,10.11));
#1719=CARTESIAN_POINT('',(-14.5,56.,10.11));
#1720=CARTESIAN_POINT('Origin',(-14.5,58.,10.11));
#1721=CARTESIAN_POINT('',(-14.5,56.,7.71));
#1722=CARTESIAN_POINT('',(-14.5,56.,10.11));
#1723=CARTESIAN_POINT('Origin',(-14.5,58.,7.71));
#1724=CARTESIAN_POINT('Origin',(7.5,56.,10.11));
#1725=CARTESIAN_POINT('',(7.5,56.,10.11));
#1726=CARTESIAN_POINT('',(3.75,56.,10.11));
#1727=CARTESIAN_POINT('',(7.5,56.,7.71));
#1728=CARTESIAN_POINT('',(7.5,56.,10.11));
#1729=CARTESIAN_POINT('',(3.75,56.,7.71));
#1730=CARTESIAN_POINT('Origin',(7.5,58.,10.11));
#1731=CARTESIAN_POINT('Origin',(7.5,58.,10.11));
#1732=CARTESIAN_POINT('Origin',(7.5,58.,7.71));
#1733=CARTESIAN_POINT('Origin',(0.,-35.,9.61));
#1734=CARTESIAN_POINT('',(-13.,-35.,10.11));
#1735=CARTESIAN_POINT('Origin',(0.,-35.,10.11));
#1736=CARTESIAN_POINT('',(-12.,-35.,9.11));
#1737=CARTESIAN_POINT('',(-12.5,-35.,9.61));
#1738=CARTESIAN_POINT('Origin',(0.,-35.,9.11));
#1739=CARTESIAN_POINT('Origin',(0.,-35.,10.11));
#1740=CARTESIAN_POINT('',(-12.,-35.,7.71));
#1741=CARTESIAN_POINT('',(-12.,-35.,10.11));
#1742=CARTESIAN_POINT('Origin',(0.,-35.,7.71));
#1743=CARTESIAN_POINT('Origin',(0.,44.,10.11));
#1744=CARTESIAN_POINT('',(41.,14.0839202169004,10.11));
#1745=CARTESIAN_POINT('',(46.,20.,10.11));
#1746=CARTESIAN_POINT('Origin',(40.,20.,10.11));
#1747=CARTESIAN_POINT('',(46.,68.,10.11));
#1748=CARTESIAN_POINT('',(46.,68.,10.11));
#1749=CARTESIAN_POINT('',(40.,74.,10.11));
#1750=CARTESIAN_POINT('Origin',(40.,68.,10.11));
#1751=CARTESIAN_POINT('',(-40.,74.,10.11));
#1752=CARTESIAN_POINT('',(-40.,74.,10.11));
#1753=CARTESIAN_POINT('',(-46.,68.,10.11));
#1754=CARTESIAN_POINT('Origin',(-40.,68.,10.11));
#1755=CARTESIAN_POINT('',(-46.,20.,10.11));
#1756=CARTESIAN_POINT('',(-46.,20.,10.11));
#1757=CARTESIAN_POINT('',(-41.,14.0839202169004,10.11));
#1758=CARTESIAN_POINT('Origin',(-40.,20.,10.11));
#1759=CARTESIAN_POINT('',(-41.,-68.,10.11));
#1760=CARTESIAN_POINT('',(-41.,-68.,10.11));
#1761=CARTESIAN_POINT('',(-35.,-74.,10.11));
#1762=CARTESIAN_POINT('Origin',(-35.,-68.,10.11));
#1763=CARTESIAN_POINT('',(35.,-74.,10.11));
#1764=CARTESIAN_POINT('',(35.,-74.,10.11));
#1765=CARTESIAN_POINT('',(41.,-68.,10.11));
#1766=CARTESIAN_POINT('Origin',(35.,-68.,10.11));
#1767=CARTESIAN_POINT('',(41.,16.,10.11));
#1768=CARTESIAN_POINT('',(-4.,34.,10.11));
#1769=CARTESIAN_POINT('',(-4.,28.,10.11));
#1770=CARTESIAN_POINT('',(-4.,39.,10.11));
#1771=CARTESIAN_POINT('',(-12.,20.,10.11));
#1772=CARTESIAN_POINT('Origin',(-12.,28.,10.11));
#1773=CARTESIAN_POINT('',(-16.,20.,10.11));
#1774=CARTESIAN_POINT('',(-5.99999999999997,20.,10.11));
#1775=CARTESIAN_POINT('',(-24.,28.,10.11));
#1776=CARTESIAN_POINT('Origin',(-16.,28.,10.11));
#1777=CARTESIAN_POINT('',(-24.,34.,10.11));
#1778=CARTESIAN_POINT('',(-24.,36.,10.11));
#1779=CARTESIAN_POINT('',(-16.,42.,10.11));
#1780=CARTESIAN_POINT('Origin',(-16.,34.,10.11));
#1781=CARTESIAN_POINT('',(-12.,42.,10.11));
#1782=CARTESIAN_POINT('',(-8.,42.,10.11));
#1783=CARTESIAN_POINT('Origin',(-12.,34.,10.11));
#1784=CARTESIAN_POINT('',(24.,34.,10.11));
#1785=CARTESIAN_POINT('',(24.,28.,10.11));
#1786=CARTESIAN_POINT('',(24.,39.,10.11));
#1787=CARTESIAN_POINT('',(16.,20.,10.11));
#1788=CARTESIAN_POINT('Origin',(16.,28.,10.11));
#1789=CARTESIAN_POINT('',(12.,20.,10.11));
#1790=CARTESIAN_POINT('',(8.00000000000002,20.,10.11));
#1791=CARTESIAN_POINT('',(4.00000000000001,28.,10.11));
#1792=CARTESIAN_POINT('Origin',(12.,28.,10.11));
#1793=CARTESIAN_POINT('',(4.00000000000001,34.,10.11));
#1794=CARTESIAN_POINT('',(4.00000000000001,36.,10.11));
#1795=CARTESIAN_POINT('',(12.,42.,10.11));
#1796=CARTESIAN_POINT('Origin',(12.,34.,10.11));
#1797=CARTESIAN_POINT('',(16.,42.,10.11));
#1798=CARTESIAN_POINT('',(6.,42.,10.11));
#1799=CARTESIAN_POINT('Origin',(16.,34.,10.11));
#1800=CARTESIAN_POINT('',(24.,7.99999999999973,10.11));
#1801=CARTESIAN_POINT('',(24.,-14.0000000000003,10.11));
#1802=CARTESIAN_POINT('',(24.,25.9999999999999,10.11));
#1803=CARTESIAN_POINT('',(21.,-17.0000000000003,10.11));
#1804=CARTESIAN_POINT('Origin',(21.,-14.0000000000003,10.11));
#1805=CARTESIAN_POINT('',(-21.,-17.0000000000003,10.11));
#1806=CARTESIAN_POINT('',(10.5,-17.0000000000003,10.11));
#1807=CARTESIAN_POINT('',(-24.,-14.0000000000003,10.11));
#1808=CARTESIAN_POINT('Origin',(-21.,-14.0000000000003,10.11));
#1809=CARTESIAN_POINT('',(-24.,7.99999999999973,10.11));
#1810=CARTESIAN_POINT('',(-24.,14.9999999999999,10.11));
#1811=CARTESIAN_POINT('',(-21.,10.9999999999997,10.11));
#1812=CARTESIAN_POINT('Origin',(-21.,7.99999999999973,10.11));
#1813=CARTESIAN_POINT('',(21.,10.9999999999997,10.11));
#1814=CARTESIAN_POINT('',(-10.5,10.9999999999997,10.11));
#1815=CARTESIAN_POINT('Origin',(21.,7.99999999999973,10.11));
#1816=CARTESIAN_POINT('Origin',(24.,7.99999999999973,10.11));
#1817=CARTESIAN_POINT('',(24.,7.99999999999973,7.71));
#1818=CARTESIAN_POINT('',(24.,7.99999999999973,10.11));
#1819=CARTESIAN_POINT('',(24.,-14.0000000000003,7.71));
#1820=CARTESIAN_POINT('',(24.,25.9999999999999,7.71));
#1821=CARTESIAN_POINT('',(24.,-14.0000000000003,10.11));
#1822=CARTESIAN_POINT('Origin',(21.,7.99999999999973,10.11));
#1823=CARTESIAN_POINT('',(21.,10.9999999999997,7.71));
#1824=CARTESIAN_POINT('',(21.,10.9999999999997,10.11));
#1825=CARTESIAN_POINT('Origin',(21.,7.99999999999973,7.71));
#1826=CARTESIAN_POINT('Origin',(-21.,10.9999999999997,10.11));
#1827=CARTESIAN_POINT('',(-21.,10.9999999999997,7.71));
#1828=CARTESIAN_POINT('',(-21.,10.9999999999997,10.11));
#1829=CARTESIAN_POINT('',(-10.5,10.9999999999997,7.71));
#1830=CARTESIAN_POINT('Origin',(-21.,7.99999999999973,10.11));
#1831=CARTESIAN_POINT('',(-24.,7.99999999999973,7.71));
#1832=CARTESIAN_POINT('',(-24.,7.99999999999973,10.11));
#1833=CARTESIAN_POINT('Origin',(-21.,7.99999999999973,7.71));
#1834=CARTESIAN_POINT('Origin',(-24.,-14.0000000000003,10.11));
#1835=CARTESIAN_POINT('',(-24.,-14.0000000000003,7.71));
#1836=CARTESIAN_POINT('',(-24.,-14.0000000000003,10.11));
#1837=CARTESIAN_POINT('',(-24.,14.9999999999999,7.71));
#1838=CARTESIAN_POINT('Origin',(-21.,-14.0000000000003,10.11));
#1839=CARTESIAN_POINT('',(-21.,-17.0000000000003,7.71));
#1840=CARTESIAN_POINT('',(-21.,-17.0000000000003,10.11));
#1841=CARTESIAN_POINT('Origin',(-21.,-14.0000000000003,7.71));
#1842=CARTESIAN_POINT('Origin',(21.,-17.0000000000003,10.11));
#1843=CARTESIAN_POINT('',(21.,-17.0000000000003,7.71));
#1844=CARTESIAN_POINT('',(21.,-17.0000000000003,10.11));
#1845=CARTESIAN_POINT('',(10.5,-17.0000000000003,7.71));
#1846=CARTESIAN_POINT('Origin',(21.,-14.0000000000003,10.11));
#1847=CARTESIAN_POINT('Origin',(21.,-14.0000000000003,7.71));
#1848=CARTESIAN_POINT('Origin',(24.,34.,10.11));
#1849=CARTESIAN_POINT('',(24.,34.,7.71));
#1850=CARTESIAN_POINT('',(24.,34.,10.11));
#1851=CARTESIAN_POINT('',(24.,28.,7.71));
#1852=CARTESIAN_POINT('',(24.,39.,7.71));
#1853=CARTESIAN_POINT('',(24.,28.,10.11));
#1854=CARTESIAN_POINT('Origin',(16.,34.,10.11));
#1855=CARTESIAN_POINT('',(16.,42.,7.71));
#1856=CARTESIAN_POINT('',(16.,42.,10.11));
#1857=CARTESIAN_POINT('Origin',(16.,34.,7.71));
#1858=CARTESIAN_POINT('Origin',(12.,42.,10.11));
#1859=CARTESIAN_POINT('',(12.,42.,7.71));
#1860=CARTESIAN_POINT('',(12.,42.,10.11));
#1861=CARTESIAN_POINT('',(6.,42.,7.71));
#1862=CARTESIAN_POINT('Origin',(12.,34.,10.11));
#1863=CARTESIAN_POINT('',(4.00000000000001,34.,7.71));
#1864=CARTESIAN_POINT('',(4.00000000000001,34.,10.11));
#1865=CARTESIAN_POINT('Origin',(12.,34.,7.71));
#1866=CARTESIAN_POINT('Origin',(4.00000000000001,28.,10.11));
#1867=CARTESIAN_POINT('',(4.00000000000001,28.,7.71));
#1868=CARTESIAN_POINT('',(4.00000000000001,28.,10.11));
#1869=CARTESIAN_POINT('',(4.00000000000001,36.,7.71));
#1870=CARTESIAN_POINT('Origin',(12.,28.,10.11));
#1871=CARTESIAN_POINT('',(12.,20.,7.71));
#1872=CARTESIAN_POINT('',(12.,20.,10.11));
#1873=CARTESIAN_POINT('Origin',(12.,28.,7.71));
#1874=CARTESIAN_POINT('Origin',(16.,20.,10.11));
#1875=CARTESIAN_POINT('',(16.,20.,7.71));
#1876=CARTESIAN_POINT('',(16.,20.,10.11));
#1877=CARTESIAN_POINT('',(8.00000000000002,20.,7.71));
#1878=CARTESIAN_POINT('Origin',(16.,28.,10.11));
#1879=CARTESIAN_POINT('Origin',(16.,28.,7.71));
#1880=CARTESIAN_POINT('Origin',(-4.,34.,10.11));
#1881=CARTESIAN_POINT('',(-4.,34.,7.71));
#1882=CARTESIAN_POINT('',(-4.,34.,10.11));
#1883=CARTESIAN_POINT('',(-4.,28.,7.71));
#1884=CARTESIAN_POINT('',(-4.,39.,7.71));
#1885=CARTESIAN_POINT('',(-4.,28.,10.11));
#1886=CARTESIAN_POINT('Origin',(-12.,34.,10.11));
#1887=CARTESIAN_POINT('',(-12.,42.,7.71));
#1888=CARTESIAN_POINT('',(-12.,42.,10.11));
#1889=CARTESIAN_POINT('Origin',(-12.,34.,7.71));
#1890=CARTESIAN_POINT('Origin',(-16.,42.,10.11));
#1891=CARTESIAN_POINT('',(-16.,42.,7.71));
#1892=CARTESIAN_POINT('',(-16.,42.,10.11));
#1893=CARTESIAN_POINT('',(-8.,42.,7.71));
#1894=CARTESIAN_POINT('Origin',(-16.,34.,10.11));
#1895=CARTESIAN_POINT('',(-24.,34.,7.71));
#1896=CARTESIAN_POINT('',(-24.,34.,10.11));
#1897=CARTESIAN_POINT('Origin',(-16.,34.,7.71));
#1898=CARTESIAN_POINT('Origin',(-24.,28.,10.11));
#1899=CARTESIAN_POINT('',(-24.,28.,7.71));
#1900=CARTESIAN_POINT('',(-24.,28.,10.11));
#1901=CARTESIAN_POINT('',(-24.,36.,7.71));
#1902=CARTESIAN_POINT('Origin',(-16.,28.,10.11));
#1903=CARTESIAN_POINT('',(-16.,20.,7.71));
#1904=CARTESIAN_POINT('',(-16.,20.,10.11));
#1905=CARTESIAN_POINT('Origin',(-16.,28.,7.71));
#1906=CARTESIAN_POINT('Origin',(-12.,20.,10.11));
#1907=CARTESIAN_POINT('',(-12.,20.,7.71));
#1908=CARTESIAN_POINT('',(-12.,20.,10.11));
#1909=CARTESIAN_POINT('',(-5.99999999999997,20.,7.71));
#1910=CARTESIAN_POINT('Origin',(-12.,28.,10.11));
#1911=CARTESIAN_POINT('Origin',(-12.,28.,7.71));
#1912=CARTESIAN_POINT('Origin',(-41.,16.,7.71));
#1913=CARTESIAN_POINT('',(-41.,14.0839202169004,7.71));
#1914=CARTESIAN_POINT('',(-41.,14.0839202169004,7.71));
#1915=CARTESIAN_POINT('',(-41.,-68.,7.71));
#1916=CARTESIAN_POINT('',(-41.,-68.,7.71));
#1917=CARTESIAN_POINT('',(-41.,-68.,7.71));
#1918=CARTESIAN_POINT('Origin',(-35.,-74.,7.71));
#1919=CARTESIAN_POINT('',(35.,-74.,7.71));
#1920=CARTESIAN_POINT('',(-35.,-74.,7.71));
#1921=CARTESIAN_POINT('',(35.,-74.,7.71));
#1922=CARTESIAN_POINT('',(35.,-74.,7.71));
#1923=CARTESIAN_POINT('',(-35.,-74.,7.71));
#1924=CARTESIAN_POINT('Origin',(-35.,-68.,7.71));
#1925=CARTESIAN_POINT('Origin',(-35.,-68.,7.71));
#1926=CARTESIAN_POINT('Origin',(41.,-68.,7.71));
#1927=CARTESIAN_POINT('',(41.,14.0839202169004,7.71));
#1928=CARTESIAN_POINT('',(41.,14.0839202169004,7.71));
#1929=CARTESIAN_POINT('',(41.,-68.,7.71));
#1930=CARTESIAN_POINT('',(41.,-68.,7.71));
#1931=CARTESIAN_POINT('',(41.,16.,7.71));
#1932=CARTESIAN_POINT('Origin',(35.,-68.,7.71));
#1933=CARTESIAN_POINT('Origin',(35.,-68.,7.71));
#1934=CARTESIAN_POINT('Origin',(40.,20.,7.71));
#1935=CARTESIAN_POINT('',(46.,20.,7.71));
#1936=CARTESIAN_POINT('Origin',(40.,20.,7.71));
#1937=CARTESIAN_POINT('',(46.,20.,7.71));
#1938=CARTESIAN_POINT('Origin',(0.,44.,7.71));
#1939=CARTESIAN_POINT('',(-46.,20.,7.71));
#1940=CARTESIAN_POINT('Origin',(-40.,20.,7.71));
#1941=CARTESIAN_POINT('',(-46.,68.,7.71));
#1942=CARTESIAN_POINT('',(-46.,20.,7.71));
#1943=CARTESIAN_POINT('',(-40.,74.,7.71));
#1944=CARTESIAN_POINT('Origin',(-40.,68.,7.71));
#1945=CARTESIAN_POINT('',(40.,74.,7.71));
#1946=CARTESIAN_POINT('',(-40.,74.,7.71));
#1947=CARTESIAN_POINT('',(46.,68.,7.71));
#1948=CARTESIAN_POINT('Origin',(40.,68.,7.71));
#1949=CARTESIAN_POINT('',(46.,68.,7.71));
#1950=CARTESIAN_POINT('Origin',(-40.,20.,7.71));
#1951=CARTESIAN_POINT('',(-46.,20.,7.71));
#1952=CARTESIAN_POINT('Origin',(-46.,68.,7.71));
#1953=CARTESIAN_POINT('',(-46.,68.,7.71));
#1954=CARTESIAN_POINT('Origin',(-40.,68.,7.71));
#1955=CARTESIAN_POINT('',(-40.,74.,7.71));
#1956=CARTESIAN_POINT('Origin',(40.,74.,7.71));
#1957=CARTESIAN_POINT('',(40.,74.,7.71));
#1958=CARTESIAN_POINT('Origin',(40.,68.,7.71));
#1959=CARTESIAN_POINT('',(46.,68.,7.71));
#1960=CARTESIAN_POINT('Origin',(46.,20.,7.71));
#1961=UNCERTAINTY_MEASURE_WITH_UNIT(LENGTH_MEASURE(0.01),#1965,
'DISTANCE_ACCURACY_VALUE',
'Maximum model space distance between geometric entities at asserted c
onnectivities');
#1962=UNCERTAINTY_MEASURE_WITH_UNIT(LENGTH_MEASURE(0.01),#1965,
'DISTANCE_ACCURACY_VALUE',
'Maximum model space distance between geometric entities at asserted c
onnectivities');
#1963=(
GEOMETRIC_REPRESENTATION_CONTEXT(3)
GLOBAL_UNCERTAINTY_ASSIGNED_CONTEXT((#1961))
GLOBAL_UNIT_ASSIGNED_CONTEXT((#1965,#1967,#1968))
REPRESENTATION_CONTEXT('','3D')
);
#1964=(
GEOMETRIC_REPRESENTATION_CONTEXT(3)
GLOBAL_UNCERTAINTY_ASSIGNED_CONTEXT((#1962))
GLOBAL_UNIT_ASSIGNED_CONTEXT((#1965,#1967,#1968))
REPRESENTATION_CONTEXT('','3D')
);
#1965=(
LENGTH_UNIT()
NAMED_UNIT(*)
SI_UNIT(.MILLI.,.METRE.)
);
#1966=(
LENGTH_UNIT()
NAMED_UNIT(*)
SI_UNIT($,.METRE.)
);
#1967=(
NAMED_UNIT(*)
PLANE_ANGLE_UNIT()
SI_UNIT($,.RADIAN.)
);
#1968=(
NAMED_UNIT(*)
SI_UNIT($,.STERADIAN.)
SOLID_ANGLE_UNIT()
);
#1969=SHAPE_DEFINITION_REPRESENTATION(#1970,#1971);
#1970=PRODUCT_DEFINITION_SHAPE('',$,#1973);
#1971=SHAPE_REPRESENTATION('',(#1174),#1963);
#1972=PRODUCT_DEFINITION_CONTEXT('part definition',#1977,'design');
#1973=PRODUCT_DEFINITION('2026-09-07-14-44-13-947',
'Robot V1 - B Front Cover',#1974,#1972);
#1974=PRODUCT_DEFINITION_FORMATION('',$,#1979);
#1975=PRODUCT_RELATED_PRODUCT_CATEGORY('Robot V1 - B Front Cover',
'Robot V1 - B Front Cover',(#1979));
#1976=APPLICATION_PROTOCOL_DEFINITION('international standard',
'automotive_design',2009,#1977);
#1977=APPLICATION_CONTEXT(
'Core Data for Automotive Mechanical Design Process');
#1978=PRODUCT_CONTEXT('part definition',#1977,'mechanical');
#1979=PRODUCT('2026-09-07-14-44-13-947','Robot V1 - B Front Cover',$,(#1978));
#1980=PRESENTATION_STYLE_ASSIGNMENT((#1982));
#1981=PRESENTATION_STYLE_ASSIGNMENT((#1983));
#1982=SURFACE_STYLE_USAGE(.BOTH.,#1984);
#1983=SURFACE_STYLE_USAGE(.BOTH.,#1985);
#1984=SURFACE_SIDE_STYLE('',(#1986));
#1985=SURFACE_SIDE_STYLE('',(#1987));
#1986=SURFACE_STYLE_FILL_AREA(#1988);
#1987=SURFACE_STYLE_FILL_AREA(#1989);
#1988=FILL_AREA_STYLE('\X2\92FC\X0\ - \X2\30B530C630F3\X0\',(#1990));
#1989=FILL_AREA_STYLE('Robot White PLA',(#1991));
#1990=FILL_AREA_STYLE_COLOUR('\X2\92FC\X0\ - \X2\30B530C630F3\X0\',#1992);
#1991=FILL_AREA_STYLE_COLOUR('Robot White PLA',#1993);
#1992=COLOUR_RGB('\X2\92FC\X0\ - \X2\30B530C630F3\X0\',0.627450980392157,
0.627450980392157,0.627450980392157);
#1993=COLOUR_RGB('Robot White PLA',0.92156862745098,0.913725490196078,0.882352941176471);
ENDSEC;
END-ISO-10303-21;
